<svg xmlns="http://www.w3.org/2000/svg" width="212" height="122" viewBox="0 0 212 122">
  <g id="Grupo_16071" data-name="Grupo 16071" transform="translate(-6851 1662)">
    <g id="Grupo_16068" data-name="Grupo 16068">
      <g id="Retângulo_6411" data-name="Retângulo 6411" transform="translate(6851 -1662)" fill="#fff" stroke="#707070" stroke-width="1" opacity="0">
        <rect width="212" height="122" stroke="none"/>
        <rect x="0.5" y="0.5" width="211" height="121" fill="none"/>
      </g>
      <g id="Grupo_16063" data-name="Grupo 16063" transform="translate(131 -1043)">
        <rect id="Retângulo_6391" data-name="Retângulo 6391" width="157.036" height="0.485" transform="translate(6749.529 -497.603)" fill="#2f2e41"/>
        <rect id="Retângulo_6392" data-name="Retângulo 6392" width="53.399" height="53.399" transform="translate(6727.998 -613.484)" fill="#3f3d56"/>
        <path id="Caminho_10867" data-name="Caminho 10867" d="M291.84,169.315v1.226a5.542,5.542,0,0,1-1.9-2.158,10.375,10.375,0,0,1-.666-4.751c.026-1.927.051-3.744-1.171-4.928-1.345-1.3-3.5-1.116-5.578-.939-.245.019-.489.042-.73.061-2.088.158-4.413-.37-5.542-1.795h1.409a6.727,6.727,0,0,0,4.063.83c.235-.016.476-.039.717-.058,2.191-.187,4.674-.4,6.331,1.206,1.525,1.473,1.5,3.59,1.467,5.636a9.643,9.643,0,0,0,.569,4.314A4.412,4.412,0,0,0,291.84,169.315Z" transform="translate(6489.556 -769.514)" fill="#6c63ff"/>
        <path id="Caminho_10868" data-name="Caminho 10868" d="M232.592,177.792v1.435a6.106,6.106,0,0,0-.785-.846c-1.66-1.464-4.044-1.785-6.347-2.1-.3-.039-.592-.08-.885-.122-3.735-.537-6.051-1.821-7.077-3.915a10.375,10.375,0,0,1-.666-4.751c.026-1.927.051-3.744-1.171-4.928-1.345-1.3-3.5-1.116-5.578-.939-.244.019-.489.042-.73.061-2.683.2-5.761-.727-6.183-3.239a4.307,4.307,0,0,1,.389-2.416h1.055a3.9,3.9,0,0,0-.492,2.255c.318,1.917,2.9,2.606,5.16,2.435.235-.016.476-.039.717-.058,2.191-.187,4.674-.4,6.331,1.206,1.525,1.473,1.5,3.59,1.467,5.636a9.643,9.643,0,0,0,.569,4.314c.875,1.789,2.95,2.9,6.347,3.384.289.042.582.084.875.122,2.445.331,4.976.676,6.858,2.332Q232.52,177.719,232.592,177.792Z" transform="translate(6548.804 -769.514)" fill="#6c63ff"/>
        <path id="Caminho_10869" data-name="Caminho 10869" d="M166.595,201.975v1.982a14.132,14.132,0,0,1-2.876-5.05c-.158-.45-.309-.91-.46-1.37-.833-2.519-1.7-5.121-3.748-6.784-2.194-1.776-5.337-2.168-8.377-2.548-.389-.048-.778-.1-1.164-.148-4.928-.653-7.981-2.207-9.335-4.748a11.666,11.666,0,0,1-.881-5.765c.035-2.335.071-4.542-1.544-5.977-1.772-1.576-4.613-1.354-7.357-1.139-.325.026-.647.051-.962.074-3.542.244-7.6-.881-8.158-3.928a6.367,6.367,0,0,1,1.1-4.095,10.424,10.424,0,0,0,.939-2.149,4.692,4.692,0,0,0-1.171-4.3h1.576a5.668,5.668,0,0,1,.833,4.577,11.611,11.611,0,0,1-1.033,2.384,5.5,5.5,0,0,0-.988,3.39c.425,2.323,3.825,3.159,6.807,2.953.312-.023.631-.048.949-.071,2.889-.228,6.163-.483,8.351,1.464,2.01,1.785,1.972,4.352,1.933,6.832-.026,1.83-.055,3.719.75,5.234,1.155,2.165,3.9,3.509,8.377,4.1.38.051.766.1,1.152.148,3.23.4,6.565.817,9.046,2.828,2.326,1.885,3.243,4.648,4.124,7.321.151.457.3.907.457,1.354A15.247,15.247,0,0,0,166.595,201.975Z" transform="translate(6614.802 -769.514)" fill="#6c63ff"/>
        <path id="Caminho_10870" data-name="Caminho 10870" d="M77,210.367c1.467,1.776,4.578,2.432,7.366,2.239.315-.022.637-.048.962-.074,2.744-.215,5.584-.437,7.357,1.139,1.615,1.435,1.579,3.641,1.544,5.977a11.666,11.666,0,0,0,.881,5.764c1.354,2.541,4.407,4.095,9.335,4.748.386.051.775.1,1.164.148,3.04.38,6.183.772,8.377,2.548,2.052,1.663,2.914,4.265,3.748,6.784.151.46.3.92.46,1.37.145.415.3.811.46,1.193h1.377c-.241-.524-.447-1.049-.624-1.55-.154-.447-.306-.9-.457-1.354-.881-2.673-1.8-5.436-4.124-7.321-2.48-2.01-5.816-2.425-9.046-2.828-.386-.048-.772-.1-1.152-.148-4.481-.6-7.222-1.94-8.377-4.1-.8-1.515-.775-3.4-.75-5.234.039-2.48.077-5.047-1.933-6.832-2.187-1.946-5.462-1.692-8.351-1.464-.318.023-.637.048-.949.071-2.982.206-6.382-.631-6.807-2.953a5.5,5.5,0,0,1,.988-3.39,11.61,11.61,0,0,0,1.033-2.384A5.847,5.847,0,0,0,77,196.48v1.576a4.706,4.706,0,0,1,1.245,4.378,10.423,10.423,0,0,1-.939,2.149c-.1.2-.206.389-.306.589Z" transform="translate(6650.998 -802.288)" fill="#6c63ff"/>
        <path id="Caminho_10871" data-name="Caminho 10871" d="M100.621,363.961H99.286c-.071-.209-.138-.421-.209-.634-.833-2.519-1.7-5.121-3.748-6.784-2.194-1.776-5.337-2.168-8.377-2.548-.389-.048-.778-.1-1.164-.148-4.349-.576-7.241-1.856-8.788-3.9v-3.2a6.071,6.071,0,0,0,.6,1.834c1.155,2.165,3.9,3.509,8.377,4.1.38.051.766.1,1.152.148,3.23.4,6.565.817,9.046,2.828,2.326,1.885,3.242,4.648,4.124,7.321C100.4,363.315,100.508,363.639,100.621,363.961Z" transform="translate(6650.998 -924.046)" fill="#6c63ff"/>
        <rect id="Retângulo_6393" data-name="Retângulo 6393" width="53.399" height="53.399" transform="translate(6800.375 -613.484)" fill="#3f3d56"/>
        <path id="Caminho_10872" data-name="Caminho 10872" d="M484.177,159.89a17.05,17.05,0,0,1-25.734,14.672V156.03h25.294A16.939,16.939,0,0,1,484.177,159.89Z" transform="translate(6341.933 -769.514)" fill="#6c63ff"/>
        <circle id="Elipse_1433" data-name="Elipse 1433" cx="10.294" cy="10.294" r="10.294" transform="translate(6829.648 -609.302)" fill="#6c63ff"/>
        <circle id="Elipse_1434" data-name="Elipse 1434" cx="7.399" cy="7.399" r="7.399" transform="translate(6809.382 -584.533)" fill="#6c63ff"/>
        <path id="Caminho_10873" data-name="Caminho 10873" d="M693.157,387.491v8.75H682.571a7.4,7.4,0,0,1,10.586-8.75Z" transform="translate(6160.617 -956.326)" fill="#6c63ff"/>
        <circle id="Elipse_1435" data-name="Elipse 1435" cx="1.93" cy="1.93" r="1.93" transform="translate(6833.508 -579.386)" fill="#6c63ff"/>
        <rect id="Retângulo_6394" data-name="Retângulo 6394" width="53.399" height="53.399" transform="translate(6873.075 -613.484)" fill="#3f3d56"/>
        <path id="Caminho_10874" data-name="Caminho 10874" d="M867.636,156.03V177.9H841.58v1.287h27.343V156.03Z" transform="translate(6031.495 -769.514)" fill="#6c63ff"/>
        <path id="Caminho_10875" data-name="Caminho 10875" d="M1022.466,339.126l2.21-3.143v-2.236l-3.783,5.378Zm-8.975-23.026-11.841,16.84,8.8,6.186h2.236l-9.242-6.5,10.361-14.736,10.873,7.646v-1.573Z" transform="translate(5901.797 -899.211)" fill="#6c63ff"/>
        <path id="Caminho_10876" data-name="Caminho 10876" d="M931.117,304.86l-6.823,6.823,6.823,6.823,6.823-6.823Zm-5.005,6.823,5.005-5.005,5.005,5.005-5.005,5.005Z" transform="translate(5964.476 -890.104)" fill="#6c63ff"/>
        <circle id="Elipse_1436" data-name="Elipse 1436" cx="4.847" cy="4.847" r="4.847" transform="translate(6749.323 -618.288)" fill="#f2f2f2"/>
        <circle id="Elipse_1437" data-name="Elipse 1437" cx="4.847" cy="4.847" r="4.847" transform="translate(6824.207 -618.288)" fill="#f2f2f2"/>
        <circle id="Elipse_1438" data-name="Elipse 1438" cx="4.847" cy="4.847" r="4.847" transform="translate(6895.696 -618.288)" fill="#f2f2f2"/>
        <circle id="Elipse_1439" data-name="Elipse 1439" cx="4.604" cy="4.604" r="4.604" transform="translate(6819.48 -594.418)" fill="#ffb8b8"/>
        <path id="Caminho_10877" data-name="Caminho 10877" d="M570.625,287.031s1.212,6.3.727,7.513,6.785-.485,6.785-.485-1.454-6.3-1.212-7.755S570.625,287.031,570.625,287.031Z" transform="translate(6251.036 -874.663)" fill="#ffb8b8"/>
        <path id="Caminho_10886" data-name="Caminho 10886" d="M560.258,250.625a2.6,2.6,0,0,0-1.152.051,3,3,0,0,0-.819.537,9.587,9.587,0,0,1-1.4.927,3.268,3.268,0,0,0-1.089.763,2.323,2.323,0,0,0-.307.582,6.972,6.972,0,0,0-.366,3.794,1.747,1.747,0,0,0,.161.521c.252.464.808.647,1.277.89a10.906,10.906,0,0,1,2.294,1.927,4.484,4.484,0,0,0,.906.7,5.38,5.38,0,0,0,3.482.182.627.627,0,0,0,.626-.634l.922-4.149a6.763,6.763,0,0,0,.236-1.887,5.369,5.369,0,0,0-1.349-3.118A5.8,5.8,0,0,0,560.258,250.625Z" transform="translate(6263.688 -846.126)" fill="#2f2e41"/>
        <rect id="Retângulo_6233" data-name="Retângulo 6233" width="10.042" height="14.635" transform="translate(6819.75 -588.803)" fill="#2f2e41"/>
        <path id="Caminho_10500" data-name="Caminho 10500" d="M297.3,245.878s.378,7.225-2.963,7.522c-2.338.207,4.559,6.61,4.559,6.61l5.926-8.205s-4.442.455-1.6-4.559Z" transform="translate(6524.394 -827.93)" fill="#ffb8b8"/>
        <path id="Caminho_10501" data-name="Caminho 10501" d="M304.816,251.805l-1.873,2.594-4.054,5.611a36.79,36.79,0,0,1-4.608-5.1c-.459-.734-.615-1.3-.169-1.467l.007,0a.721.721,0,0,1,.2-.044l.012,0a2.123,2.123,0,0,0,.569-.128c2.729-1.02,2.394-7.392,2.394-7.392l5.927,1.368c-1.9,3.345-.554,4.257.552,4.491a3.693,3.693,0,0,0,.738.078C304.7,251.817,304.816,251.805,304.816,251.805Z" transform="translate(6524.396 -827.931)" opacity="0.1"/>
        <path id="Caminho_10502" data-name="Caminho 10502" d="M308.615,180.513c-1.085,3.212-2.749,6.139-6.14,6.139a6.269,6.269,0,0,1-6.139-6.139c-.244-4.326,2.671-6.157,6.139-6.139C306.574,174.394,309.9,176.7,308.615,180.513Z" transform="translate(6522.34 -768.499)" fill="#2f2e41"/>
        <path id="Caminho_10503" data-name="Caminho 10503" d="M283.216,519.9l1.6,11.168s-1.368,6.838-.684,11.624l.684,5.014H288l.912-5.242a71.467,71.467,0,0,0,.912-7.977s2.507-11.4.912-13.675Z" transform="translate(6533.233 -1055.684)" fill="#ffb8b8"/>
        <path id="Caminho_10504" data-name="Caminho 10504" d="M358.315,515.851l-1.6,11.852s1.368,6.838.684,11.624l-.684,5.014h-3.191l-.912-5.242a71.46,71.46,0,0,1-.912-7.977s-2.507-12.08-.912-14.359Z" transform="translate(6477.507 -1052.318)" fill="#ffb8b8"/>
        <path id="Caminho_10505" data-name="Caminho 10505" d="M365.484,679.322s1.823-.684,2.051.228.684,5.7.684,5.7,1.368,2.051,2.279,2.279,2.963,3.191.456,3.419-5.014-.684-5.014-1.14-.912-.684-1.368-.684-2.051-.684-1.823-1.368.912-8.661.912-8.661Z" transform="translate(6467.148 -1187.983)" fill="#2f2e41"/>
        <path id="Caminho_10506" data-name="Caminho 10506" d="M269.272,679.322s-1.823-.684-2.051.228-.684,5.7-.684,5.7-1.368,2.051-2.279,2.279-2.963,3.191-.456,3.419,5.014-.684,5.014-1.14.912-.684,1.368-.684,2.051-.684,1.823-1.368-.912-8.661-.912-8.661Z" transform="translate(6550.368 -1187.983)" fill="#2f2e41"/>
        <ellipse id="Elipse_1265" data-name="Elipse 1265" cx="4.726" cy="4.726" rx="4.726" ry="4.726" transform="translate(6820.384 -588.83)" fill="#ffb8b8"/>
        <path id="Caminho_10507" data-name="Caminho 10507" d="M362.672,295.273s-9.572,4.1-10.484-.228a62.58,62.58,0,0,1-1.14-8.2l0,0c-.133-.081-4.849-2.975-3.921-6.977a6.032,6.032,0,0,1,1.189-2.366s.14-.091.378-.218a7.572,7.572,0,0,1,.863-.393c1.609-.613,4.285-.959,4.912,3.117a93.616,93.616,0,0,1,.912,12.309,7.374,7.374,0,0,0,6.383,0c3.647-1.6,7.294-.684,7.522,1.368S362.672,295.273,362.672,295.273Z" transform="translate(6480.216 -853.394)" fill="#ffb8b8"/>
        <path id="Caminho_10508" data-name="Caminho 10508" d="M224.017,290.419l-.049,1.515-.544,17.074-.091,2.837-7.977,8.89s-1.6,4.785-5.015,5.469,2.28-6.609,2.28-6.609l7.75-11.4.012-.383a43.322,43.322,0,0,0-.794-9.522,11.419,11.419,0,0,1-.13-3.543,5.1,5.1,0,0,1,3.646-4.079,6.25,6.25,0,0,1,.694-.2l.007,0c.1-.025.172-.039.2-.044Z" transform="translate(6594.709 -864.95)" fill="#ffb8b8"/>
        <path id="Caminho_10509" data-name="Caminho 10509" d="M295.138,297.1v.912c-3.323,4.061-10.678,2.143-13.358,1.266-.63-.206-1-.355-1-.355a2.357,2.357,0,0,0,.228-.912v-2.05c0-.684.226-.228.454-.456s-.682-1.6-.682-1.6c-2.28-1.368-.912-5.243-.912-5.243l1.594-3.419v-4.307a6.239,6.239,0,0,1,.694-.2l.007,0a.724.724,0,0,1,.2-.044l.012,0a2.118,2.118,0,0,0,.569-.128,3.775,3.775,0,0,0,3.306,2.18c2.335.167,4.549-2.35,5.567-3.713a3.692,3.692,0,0,0,.738.078,7.555,7.555,0,0,1,.863-.393l-1.013,4.257c-.9,2.241,2.391,5.581,2.5,5.7l0,0v2.507l-.228,2.735-.228.684.456.684-.228.684.228.456C295.138,296.869,295.138,296.642,295.138,297.1Z" transform="translate(6536.354 -855.218)" fill="#d0cde1"/>
        <path id="Caminho_10510" data-name="Caminho 10510" d="M263.88,392.138l-.684-.228s-8.205,20.513-2.735,21.425,9.573,2.507,10.485.912.456-7.294.456-7.294l.912-.228s-1.6,8.433,1.6,7.749,12.08-1.823,12.08-2.735-8.205-20.6-8.205-20.6S274.365,393.277,263.88,392.138Z" transform="translate(6553.708 -948.662)" fill="#2f2e41"/>
        <ellipse id="Elipse_1266" data-name="Elipse 1266" cx="2.423" cy="2.423" rx="2.423" ry="2.423" transform="translate(6822.392 -597.68)" fill="#2f2e41"/>
        <path id="Caminho_10511" data-name="Caminho 10511" d="M313.158,148.092a2.424,2.424,0,0,1,2.181-2.411c-.08-.008-.16-.012-.242-.012a2.423,2.423,0,1,0,0,4.847c.082,0,.163,0,.242-.012A2.424,2.424,0,0,1,313.158,148.092Z" transform="translate(6508.75 -744.642)" fill="#2f2e41"/>
        <path id="Caminho_10512" data-name="Caminho 10512" d="M292.844,195.524s-.051-.282-2.03.46-3.166,6.219-2.176,9.435a2.947,2.947,0,0,1-.455,2.884,4.765,4.765,0,0,0,1.689,7.4q.123.053.25.106l1.237.742a5.657,5.657,0,0,1-.788-4.729,13.607,13.607,0,0,0,.246-6.966c-.091-.389-.193-.789-.31-1.2-.99-3.463-.508-3.063,2.955-6.527a22.018,22.018,0,0,0,3.711,2.227c1.732.742,3.216,1.484,1.979,3.958s-4.206,4.7-2.227,7.916,2.227,1.979,1.979,3.216h0l-.247,1.237,1.484-1.484-.99,1.979s3.216,0,4.206-2.474l.495.495s1.979-3.463-1.732-6.68c0,0-1.237-.742.495-3.216s.4-7.793-1.825-8.782S292.844,195.524,292.844,195.524Z" transform="translate(6530.02 -785.713)" fill="#2f2e41"/>
      </g>
    </g>
  </g>
</svg>
