<svg xmlns="http://www.w3.org/2000/svg" width="207.651" height="126.895" viewBox="0 0 207.651 126.895">
  <g id="Grupo_16063" data-name="Grupo 16063" transform="translate(-6727.998 618.288)">
    <path id="Caminho_10864" data-name="Caminho 10864" d="M236.158,634.55c1.7,6.286,7.524,10.178,7.524,10.178s3.067-6.3,1.367-12.583-7.524-10.178-7.524-10.178S234.457,628.265,236.158,634.55Z" transform="translate(6523.847 -1142.731)" fill="#3f3d56"/>
    <path id="Caminho_10865" data-name="Caminho 10865" d="M203.739,658.67c4.666,4.542,5.236,11.524,5.236,11.524s-6.995-.382-11.661-4.924-5.236-11.524-5.236-11.524S199.074,654.128,203.739,658.67Z" transform="translate(6558.764 -1168.202)" fill="#6c63ff"/>
    <rect id="Retângulo_6391" data-name="Retângulo 6391" width="164.295" height="0.507" transform="translate(6750.524 -492.024)" fill="#2f2e41"/>
    <path id="Caminho_10866" data-name="Caminho 10866" d="M261.118,741.4h-6.592v-6.592h6.592Zm-6.085-.507h5.578v-5.578h-5.578Z" transform="translate(6508.714 -1233.171)" fill="#3f3d56"/>
    <rect id="Retângulo_6392" data-name="Retângulo 6392" width="55.867" height="55.867" transform="translate(6727.998 -613.262)" fill="#3f3d56"/>
    <path id="Caminho_10867" data-name="Caminho 10867" d="M292.561,169.93v1.282a5.8,5.8,0,0,1-1.992-2.258,10.855,10.855,0,0,1-.7-4.971c.027-2.016.054-3.917-1.225-5.156-1.407-1.36-3.658-1.168-5.836-.983-.256.02-.512.044-.764.064-2.184.165-4.617-.387-5.8-1.878h1.474a7.038,7.038,0,0,0,4.251.868c.246-.017.5-.04.751-.061,2.292-.2,4.89-.417,6.623,1.262,1.6,1.541,1.565,3.756,1.535,5.9a10.088,10.088,0,0,0,.6,4.513A4.616,4.616,0,0,0,292.561,169.93Z" transform="translate(6491.304 -769.292)" fill="#6c63ff"/>
    <path id="Caminho_10868" data-name="Caminho 10868" d="M233.954,178.8v1.5a6.387,6.387,0,0,0-.821-.885c-1.737-1.531-4.23-1.868-6.64-2.2-.313-.04-.619-.084-.926-.128-3.907-.562-6.331-1.9-7.4-4.1a10.854,10.854,0,0,1-.7-4.971c.027-2.016.054-3.917-1.225-5.156-1.407-1.36-3.658-1.168-5.836-.983-.256.02-.512.044-.764.064-2.807.212-6.028-.761-6.468-3.389a4.506,4.506,0,0,1,.407-2.528h1.1a4.082,4.082,0,0,0-.515,2.359c.333,2.006,3.032,2.726,5.4,2.548.246-.017.5-.04.751-.061,2.292-.2,4.89-.417,6.623,1.262,1.6,1.541,1.565,3.756,1.535,5.9a10.089,10.089,0,0,0,.6,4.513c.915,1.871,3.086,3.029,6.64,3.541.3.044.609.087.915.128,2.558.347,5.206.707,7.175,2.44Q233.879,178.722,233.954,178.8Z" transform="translate(6549.911 -769.292)" fill="#6c63ff"/>
    <path id="Caminho_10869" data-name="Caminho 10869" d="M168.671,204.1v2.073a14.786,14.786,0,0,1-3.009-5.284c-.165-.471-.323-.952-.481-1.434-.872-2.635-1.774-5.358-3.921-7.1-2.3-1.858-5.583-2.268-8.764-2.665-.407-.05-.814-.1-1.218-.155-5.156-.683-8.35-2.309-9.767-4.967-.983-1.848-.952-3.975-.922-6.031.037-2.443.074-4.752-1.615-6.253-1.854-1.649-4.826-1.417-7.7-1.191-.34.027-.676.054-1.006.077-3.705.256-7.956-.922-8.535-4.109-.286-1.562.444-2.945,1.148-4.284a10.9,10.9,0,0,0,.983-2.248,4.909,4.909,0,0,0-1.225-4.5h1.649a5.93,5.93,0,0,1,.872,4.789,12.147,12.147,0,0,1-1.08,2.494c-.643,1.218-1.245,2.369-1.033,3.547.444,2.43,4,3.3,7.121,3.09.326-.024.66-.05.993-.074,3.022-.239,6.448-.5,8.737,1.531,2.1,1.868,2.063,4.553,2.023,7.148-.027,1.915-.057,3.891.784,5.476,1.208,2.265,4.076,3.672,8.764,4.294.4.054.8.1,1.2.155,3.379.421,6.869.855,9.464,2.958,2.433,1.972,3.392,4.863,4.315,7.66.158.478.316.949.478,1.417A15.953,15.953,0,0,0,168.671,204.1Z" transform="translate(6615.193 -769.292)" fill="#6c63ff"/>
    <path id="Caminho_10870" data-name="Caminho 10870" d="M77,211.009c1.535,1.858,4.789,2.544,7.707,2.342.33-.023.666-.05,1.006-.077,2.871-.225,5.842-.458,7.7,1.191,1.689,1.5,1.652,3.81,1.615,6.253-.03,2.056-.061,4.183.922,6.031,1.417,2.659,4.611,4.284,9.767,4.967.4.054.811.1,1.218.155,3.18.4,6.468.808,8.764,2.665,2.147,1.74,3.049,4.463,3.921,7.1.158.481.316.963.481,1.434.151.434.313.848.481,1.249h1.44c-.252-.549-.468-1.1-.653-1.622-.162-.468-.32-.939-.478-1.417-.922-2.8-1.881-5.688-4.315-7.66-2.595-2.1-6.085-2.538-9.464-2.958-.4-.051-.808-.1-1.2-.155-4.688-.623-7.556-2.029-8.764-4.294-.841-1.585-.811-3.561-.784-5.476.04-2.595.081-5.28-2.023-7.148-2.289-2.036-5.715-1.77-8.737-1.531-.333.024-.666.05-.993.074-3.12.215-6.677-.66-7.121-3.09-.212-1.178.39-2.329,1.033-3.547A12.147,12.147,0,0,0,79.6,203,6.118,6.118,0,0,0,77,196.48v1.649a4.924,4.924,0,0,1,1.3,4.58,10.9,10.9,0,0,1-.983,2.248c-.108.205-.215.407-.32.616Z" transform="translate(6650.998 -801.711)" fill="#6c63ff"/>
    <path id="Caminho_10871" data-name="Caminho 10871" d="M101.713,364.757h-1.4c-.074-.219-.145-.441-.219-.663-.872-2.635-1.774-5.358-3.921-7.1-2.3-1.858-5.583-2.268-8.764-2.666-.407-.05-.814-.1-1.218-.155-4.55-.6-7.576-1.942-9.195-4.076v-3.349a6.352,6.352,0,0,0,.623,1.918c1.208,2.265,4.076,3.672,8.764,4.294.4.054.8.1,1.2.155,3.379.421,6.869.855,9.464,2.958,2.433,1.972,3.392,4.863,4.315,7.66C101.484,364.08,101.6,364.42,101.713,364.757Z" transform="translate(6650.998 -922.151)" fill="#6c63ff"/>
    <rect id="Retângulo_6393" data-name="Retângulo 6393" width="55.867" height="55.867" transform="translate(6803.721 -613.262)" fill="#3f3d56"/>
    <path id="Caminho_10872" data-name="Caminho 10872" d="M485.366,160.069a17.838,17.838,0,0,1-26.924,15.35V156.03h26.463A17.721,17.721,0,0,1,485.366,160.069Z" transform="translate(6345.279 -769.292)" fill="#6c63ff"/>
    <circle id="Elipse_1433" data-name="Elipse 1433" cx="10.77" cy="10.77" r="10.77" transform="translate(6834.347 -608.886)" fill="#6c63ff"/>
    <circle id="Elipse_1434" data-name="Elipse 1434" cx="7.741" cy="7.741" r="7.741" transform="translate(6813.145 -582.972)" fill="#6c63ff"/>
    <path id="Caminho_10873" data-name="Caminho 10873" d="M693.663,387.533v9.154H682.587a7.741,7.741,0,0,1,11.076-9.154Z" transform="translate(6165.926 -954.081)" fill="#6c63ff"/>
    <circle id="Elipse_1435" data-name="Elipse 1435" cx="2.019" cy="2.019" r="2.019" transform="translate(6838.386 -577.587)" fill="#6c63ff"/>
    <rect id="Retângulo_6394" data-name="Retângulo 6394" width="55.867" height="55.867" transform="translate(6879.781 -613.262)" fill="#3f3d56"/>
    <path id="Caminho_10874" data-name="Caminho 10874" d="M868.841,156.03v22.885H841.58v1.346h28.607V156.03Z" transform="translate(6038.201 -769.292)" fill="#6c63ff"/>
    <path id="Caminho_10875" data-name="Caminho 10875" d="M1023.428,340.19l2.312-3.288v-2.339l-3.958,5.627Zm-9.39-24.09-12.388,17.618,9.2,6.472h2.339l-9.669-6.8,10.84-15.417,11.375,8v-1.646Z" transform="translate(5909.908 -897.585)" fill="#6c63ff"/>
    <path id="Caminho_10876" data-name="Caminho 10876" d="M931.432,304.86,924.294,312l7.138,7.138L938.57,312ZM926.2,312l5.237-5.237L936.669,312l-5.237,5.237Z" transform="translate(5971.908 -888.576)" fill="#6c63ff"/>
    <circle id="Elipse_1436" data-name="Elipse 1436" cx="5.071" cy="5.071" r="5.071" transform="translate(6750.309 -618.288)" fill="#f2f2f2"/>
    <circle id="Elipse_1437" data-name="Elipse 1437" cx="5.071" cy="5.071" r="5.071" transform="translate(6828.654 -618.288)" fill="#f2f2f2"/>
    <circle id="Elipse_1438" data-name="Elipse 1438" cx="5.071" cy="5.071" r="5.071" transform="translate(6903.449 -618.288)" fill="#f2f2f2"/>
    <circle id="Elipse_1439" data-name="Elipse 1439" cx="4.817" cy="4.817" r="4.817" transform="translate(6823.709 -593.315)" fill="#ffb8b8"/>
    <path id="Caminho_10877" data-name="Caminho 10877" d="M570.625,287.088s1.268,6.592.761,7.86,7.1-.507,7.1-.507-1.521-6.592-1.268-8.113S570.625,287.088,570.625,287.088Z" transform="translate(6255.366 -873.303)" fill="#ffb8b8"/>
    <path id="Caminho_10886" data-name="Caminho 10886" d="M560.5,250.627a2.723,2.723,0,0,0-1.2.053,3.141,3.141,0,0,0-.856.562,10.026,10.026,0,0,1-1.464.97,3.418,3.418,0,0,0-1.139.8,2.43,2.43,0,0,0-.322.609,7.294,7.294,0,0,0-.383,3.97,1.826,1.826,0,0,0,.169.545c.264.485.846.677,1.336.931a11.413,11.413,0,0,1,2.4,2.016,4.691,4.691,0,0,0,.948.731,5.629,5.629,0,0,0,3.643.19.656.656,0,0,0,.655-.663l.965-4.341a7.075,7.075,0,0,0,.247-1.974,5.618,5.618,0,0,0-1.411-3.262C563.182,250.89,561.678,250.752,560.5,250.627Z" transform="translate(6267.88 -845.074)" fill="#2f2e41"/>
    <rect id="Retângulo_6233" data-name="Retângulo 6233" width="10.506" height="15.311" transform="translate(6823.992 -587.44)" fill="#2f2e41"/>
    <path id="Caminho_10500" data-name="Caminho 10500" d="M297.456,245.878s.4,7.559-3.1,7.869c-2.446.217,4.769,6.915,4.769,6.915l6.2-8.585s-4.648.476-1.669-4.769Z" transform="translate(6528.566 -826.255)" fill="#ffb8b8"/>
    <path id="Caminho_10501" data-name="Caminho 10501" d="M305.323,252.079l-1.959,2.713-4.242,5.87a38.492,38.492,0,0,1-4.821-5.332c-.48-.768-.643-1.36-.177-1.535l.007,0a.755.755,0,0,1,.208-.046l.012,0a2.22,2.22,0,0,0,.6-.134c2.855-1.067,2.505-7.734,2.505-7.734l6.2,1.431c-1.987,3.5-.579,4.453.578,4.7a3.864,3.864,0,0,0,.772.081C305.2,252.092,305.323,252.079,305.323,252.079Z" transform="translate(6528.568 -826.256)" opacity="0.1"/>
    <path id="Caminho_10502" data-name="Caminho 10502" d="M309.184,180.8c-1.135,3.361-2.876,6.423-6.423,6.423a6.559,6.559,0,0,1-6.423-6.423c-.255-4.526,2.794-6.442,6.423-6.423C307.048,174.4,310.531,176.808,309.184,180.8Z" transform="translate(6526.531 -767.382)" fill="#2f2e41"/>
    <path id="Caminho_10503" data-name="Caminho 10503" d="M283.216,519.9l1.669,11.685s-1.431,7.154-.715,12.162l.715,5.246h3.339l.954-5.485a74.772,74.772,0,0,0,.954-8.346s2.623-11.923.954-14.308Z" transform="translate(6537.322 -1051.87)" fill="#ffb8b8"/>
    <path id="Caminho_10504" data-name="Caminho 10504" d="M358.688,515.851l-1.669,12.4s1.431,7.154.715,12.162l-.715,5.246H353.68l-.954-5.485a74.765,74.765,0,0,1-.954-8.346s-2.623-12.638-.954-15.023Z" transform="translate(6482.119 -1048.536)" fill="#ffb8b8"/>
    <path id="Caminho_10505" data-name="Caminho 10505" d="M365.611,679.334s1.908-.715,2.146.238.715,5.962.715,5.962,1.431,2.146,2.385,2.385,3.1,3.338.477,3.577-5.246-.715-5.246-1.192-.954-.715-1.431-.715-2.146-.715-1.908-1.431.954-9.062.954-9.062Z" transform="translate(6471.857 -1182.926)" fill="#2f2e41"/>
    <path id="Caminho_10506" data-name="Caminho 10506" d="M269.581,679.334s-1.908-.715-2.146.238-.715,5.962-.715,5.962-1.431,2.146-2.385,2.385-3.1,3.338-.477,3.577,5.246-.715,5.246-1.192.954-.715,1.431-.715,2.146-.715,1.908-1.431-.954-9.062-.954-9.062Z" transform="translate(6554.295 -1182.926)" fill="#2f2e41"/>
    <ellipse id="Elipse_1265" data-name="Elipse 1265" cx="4.945" cy="4.945" rx="4.945" ry="4.945" transform="translate(6824.655 -587.468)" fill="#ffb8b8"/>
    <path id="Caminho_10507" data-name="Caminho 10507" d="M363.4,296.14s-10.015,4.293-10.969-.238a65.472,65.472,0,0,1-1.192-8.584l0,0c-.14-.085-5.074-3.113-4.1-7.3a6.31,6.31,0,0,1,1.244-2.475s.147-.1.4-.228a7.922,7.922,0,0,1,.9-.412c1.684-.641,4.484-1,5.139,3.261a97.945,97.945,0,0,1,.954,12.878,7.715,7.715,0,0,0,6.678,0c3.816-1.669,7.632-.715,7.87,1.431S363.4,296.14,363.4,296.14Z" transform="translate(6484.803 -851.48)" fill="#ffb8b8"/>
    <path id="Caminho_10508" data-name="Caminho 10508" d="M224.7,290.419,224.649,292l-.569,17.863-.1,2.968-8.345,9.3s-1.669,5.006-5.247,5.722,2.385-6.914,2.385-6.914l8.109-11.924.012-.4a45.325,45.325,0,0,0-.83-9.962,11.947,11.947,0,0,1-.136-3.706,5.331,5.331,0,0,1,3.814-4.268,6.537,6.537,0,0,1,.726-.214l.007,0c.108-.027.18-.041.208-.046Z" transform="translate(6598.221 -862.928)" fill="#ffb8b8"/>
    <path id="Caminho_10509" data-name="Caminho 10509" d="M295.863,297.947v.954c-3.477,4.249-11.172,2.242-13.975,1.325-.659-.216-1.048-.371-1.048-.371a2.467,2.467,0,0,0,.238-.954v-2.145c0-.715.237-.238.475-.477s-.714-1.669-.714-1.669c-2.385-1.431-.954-5.485-.954-5.485l1.668-3.577v-4.507a6.532,6.532,0,0,1,.726-.214l.007,0a.758.758,0,0,1,.208-.046l.012,0a2.216,2.216,0,0,0,.6-.134,3.95,3.95,0,0,0,3.459,2.281c2.443.175,4.759-2.459,5.824-3.885a3.863,3.863,0,0,0,.772.081,7.9,7.9,0,0,1,.9-.412L293,283.162c-.938,2.344,2.5,5.839,2.62,5.96l0,0v2.623l-.238,2.862-.239.715.477.715-.238.715.238.477C295.863,297.708,295.863,297.472,295.863,297.947Z" transform="translate(6540.414 -853.286)" fill="#d0cde1"/>
    <path id="Caminho_10510" data-name="Caminho 10510" d="M264.125,392.184l-.715-.238s-8.585,21.462-2.862,22.415,10.015,2.623,10.969.954.477-7.631.477-7.631l.954-.238s-1.669,8.823,1.669,8.108,12.639-1.908,12.639-2.862-8.585-21.555-8.585-21.555S275.094,393.376,264.125,392.184Z" transform="translate(6557.604 -945.853)" fill="#2f2e41"/>
    <ellipse id="Elipse_1266" data-name="Elipse 1266" cx="2.535" cy="2.535" rx="2.535" ry="2.535" transform="translate(6826.756 -596.728)" fill="#2f2e41"/>
    <path id="Caminho_10511" data-name="Caminho 10511" d="M313.18,148.2a2.536,2.536,0,0,1,2.282-2.523c-.083-.008-.168-.013-.253-.013a2.535,2.535,0,1,0,0,5.071c.086,0,.17,0,.254-.013A2.536,2.536,0,0,1,313.18,148.2Z" transform="translate(6513.068 -743.749)" fill="#2f2e41"/>
    <path id="Caminho_10512" data-name="Caminho 10512" d="M293.111,195.544s-.053-.295-2.124.482-3.312,6.507-2.277,9.871a3.083,3.083,0,0,1-.476,3.018A4.985,4.985,0,0,0,290,216.657q.128.056.262.111l1.294.776a5.919,5.919,0,0,1-.824-4.947,14.236,14.236,0,0,0,.257-7.288c-.095-.407-.2-.826-.325-1.254-1.035-3.624-.532-3.205,3.092-6.829a23.035,23.035,0,0,0,3.882,2.329c1.812.776,3.365,1.553,2.071,4.141s-4.4,4.918-2.329,8.282,2.329,2.071,2.071,3.365h0l-.259,1.294,1.553-1.553-1.035,2.071s3.365,0,4.4-2.588l.518.518s2.071-3.624-1.812-6.988c0,0-1.294-.776.518-3.365s.42-8.153-1.909-9.188S293.111,195.544,293.111,195.544Z" transform="translate(6534.139 -784.434)" fill="#2f2e41"/>
  </g>
</svg>
