<svg xmlns="http://www.w3.org/2000/svg" width="165.707" height="116.879" viewBox="0 0 165.707 116.879">
  <g id="Grupo_16059" data-name="Grupo 16059" transform="translate(-6197.805 789.229)">
    <g id="Grupo_16056" data-name="Grupo 16056" transform="translate(6181.723 -789.229)">
      <path id="Caminho_10636" data-name="Caminho 10636" d="M355.058,59.11h-.177V58.8h.133a.089.089,0,0,0,.089-.089v-1.6a.089.089,0,0,0-.089-.089h-.133v-.907a1.932,1.932,0,0,0-1.933-1.933h-.2v-.222a.089.089,0,0,0-.089-.089h-1.6a.089.089,0,0,0-.089.089v.222h-28.86a1.932,1.932,0,0,0-1.932,1.933V97.243a1.933,1.933,0,0,0,1.933,1.933h30.832a1.933,1.933,0,0,0,1.933-1.933V60.885h.177a.089.089,0,0,0,.089-.089V59.2A.089.089,0,0,0,355.058,59.11Z" transform="translate(-290.769 -53.875)" fill="#f9f9ff"/>
      <rect id="Retângulo_6239" data-name="Retângulo 6239" width="31.769" height="42.152" transform="translate(30.712 1.575)" fill="#3f3d56"/>
      <path id="Caminho_10639" data-name="Caminho 10639" d="M767.882,103.8H767.7V98.721a2.94,2.94,0,0,0-2.94-2.94H754a2.94,2.94,0,0,0-2.94,2.94v27.865a2.94,2.94,0,0,0,2.94,2.94h10.761a2.94,2.94,0,0,0,2.94-2.94v-19.17h.185Z" transform="translate(-651.766 -87.474)" fill="#f9f9ff"/>
      <path id="Caminho_10640" data-name="Caminho 10640" d="M772.778,105.347v27.824a2.2,2.2,0,0,1-2.2,2.2H759.77a2.2,2.2,0,0,1-2.2-2.2V105.347a2.2,2.2,0,0,1,2.195-2.195h1.312a1.043,1.043,0,0,0,.966,1.437h6.165a1.043,1.043,0,0,0,.966-1.437h1.4a2.2,2.2,0,0,1,2.195,2.195Z" transform="translate(-657.474 -93.928)" fill="#3f3d56"/>
      <rect id="Retângulo_6245" data-name="Retângulo 6245" width="12.114" height="0.637" transform="translate(101.627 11.566)" fill="#ccc"/>
      <rect id="Retângulo_6246" data-name="Retângulo 6246" width="12.114" height="0.637" transform="translate(101.627 13.584)" fill="#ccc"/>
      <rect id="Retângulo_6247" data-name="Retângulo 6247" width="12.114" height="0.637" transform="translate(101.627 15.602)" fill="#ccc"/>
      <path id="Caminho_10641" data-name="Caminho 10641" d="M416.152,430.827H382.86v-.686h-15.1v.686H334.335a2.252,2.252,0,0,0-2.252,2.252v45.587a2.252,2.252,0,0,0,2.252,2.252h81.817a2.252,2.252,0,0,0,2.252-2.252V433.079A2.252,2.252,0,0,0,416.152,430.827Z" transform="translate(-301.133 -379.613)" fill="#f9f9ff"/>
      <rect id="Retângulo_6249" data-name="Retângulo 6249" width="80.283" height="45.288" transform="translate(33.969 55.193)" fill="#3f3d56"/>
      <circle id="Elipse_1272" data-name="Elipse 1272" cx="0.823" cy="0.823" r="0.823" transform="translate(73.218 52.312)" fill="#6c63ff"/>
      <path id="Caminho_10642" data-name="Caminho 10642" d="M402.579,734.594h-7.835v-.565a.112.112,0,0,0-.112-.112h-2.686a.112.112,0,0,0-.112.112v.565h-1.679v-.565a.112.112,0,0,0-.112-.112h-2.686a.112.112,0,0,0-.112.112v.565h-1.679v-.565a.112.112,0,0,0-.112-.112h-2.686a.112.112,0,0,0-.112.112v.565h-1.679v-.565a.112.112,0,0,0-.112-.112h-2.686a.112.112,0,0,0-.112.112v.565h-1.679v-.565a.112.112,0,0,0-.112-.112H373.59a.112.112,0,0,0-.112.112v.565H371.8v-.565a.112.112,0,0,0-.112-.112H369a.112.112,0,0,0-.112.112v.565H367.21v-.565a.112.112,0,0,0-.112-.112H346.055a.112.112,0,0,0-.112.112v.565h-1.679v-.565a.112.112,0,0,0-.112-.112h-2.686a.112.112,0,0,0-.112.112v.565h-1.679v-.565a.112.112,0,0,0-.112-.112h-2.686a.112.112,0,0,0-.112.112v.565h-1.679v-.565a.112.112,0,0,0-.112-.112h-2.686a.112.112,0,0,0-.112.112v.565H330.5v-.565a.112.112,0,0,0-.112-.112H327.7a.112.112,0,0,0-.112.112v.565h-1.679v-.565a.112.112,0,0,0-.112-.112h-2.686a.112.112,0,0,0-.112.112v.565h-1.679v-.565a.112.112,0,0,0-.112-.112H318.52a.112.112,0,0,0-.112.112v.565H313.26a2.686,2.686,0,0,0-2.686,2.686V738.5a2.686,2.686,0,0,0,2.686,2.686h89.32a2.686,2.686,0,0,0,2.686-2.686v-1.215A2.686,2.686,0,0,0,402.579,734.594Z" transform="translate(-283.054 -634.937)" fill="#f9f9ff"/>
      <rect id="Retângulo_6255" data-name="Retângulo 6255" width="59.874" height="0.837" transform="translate(44.681 63.624)" fill="#ccc"/>
      <path id="Caminho_10643" data-name="Caminho 10643" d="M910.5,344.713a8.485,8.485,0,0,0-5.041-2.66l.829-.749-.917-.046-1.135,1.026,1.026,1.135.917.046-.687-.76a7.873,7.873,0,0,1-1.256,15.645v.638a8.512,8.512,0,0,0,6.264-14.275Z" transform="translate(-782.028 -304.907)" fill="#3f3d56"/>
      <path id="Caminho_10644" data-name="Caminho 10644" d="M241.122,344.713a8.485,8.485,0,0,1,5.041-2.66l-.829-.749.917-.046,1.135,1.026-1.026,1.135-.917.046.687-.76a7.873,7.873,0,0,0,1.256,15.645v.638a8.512,8.512,0,0,1-6.264-14.275Z" transform="translate(-222.792 -304.907)" fill="#3f3d56"/>
      <path id="Caminho_10645" data-name="Caminho 10645" d="M962.091,320.514l5.308-7.706s4.622-3.706,3.3-4.428-4.793,2.662-4.793,2.662-10.006,7.671-8.356,8.742S962.091,320.514,962.091,320.514Z" transform="translate(-811.009 -280.91)" fill="#ffb8b8"/>
      <path id="Caminho_10646" data-name="Caminho 10646" d="M990.406,279.936h6.874a24.047,24.047,0,0,0,0-8.2h-6.874A14.747,14.747,0,0,1,990.406,279.936Z" transform="translate(-838.553 -250.452)" fill="#f9d74d"/>
      <path id="Caminho_10647" data-name="Caminho 10647" d="M1017.953,304.973a8.025,8.025,0,0,0-6.153-3.653s-3.982-.509-6.537,4.807c-2.381,4.955-5.667,9.739-.529,10.9l.928-2.889.575,3.1a20.091,20.091,0,0,0,2.2.038c5.5-.178,10.743.052,10.575-1.923C1018.786,312.73,1019.94,308.331,1017.953,304.973Z" transform="translate(-848.228 -275.098)" fill="#2f2e41"/>
      <path id="Caminho_10648" data-name="Caminho 10648" d="M1018.542,452.616,1015.9,458.7l9.262,1.455s4.366-5.954,4.763-6.351Z" transform="translate(-859.801 -401.226)" fill="#ffb8b8"/>
      <ellipse id="Elipse_1273" data-name="Elipse 1273" cx="4.895" cy="4.895" rx="4.895" ry="4.895" transform="translate(158.212 28.368)" fill="#ffb8b8"/>
      <path id="Caminho_10649" data-name="Caminho 10649" d="M1050.876,358.538s2.249,5.028,1.985,5.557,4.763-2.778,4.763-2.778-2.117-3.572-1.985-4.1Z" transform="translate(-888.959 -321.702)" fill="#ffb8b8"/>
      <path id="Caminho_10650" data-name="Caminho 10650" d="M1088.645,375.9s3.969-2.249,6.219,3.969c0,0,7.409,8.732,6.086,10.32s-6.351-3.837-6.351-3.837l-3.176-3.308s-4.5-1.191-4.1-3.7A6.5,6.5,0,0,1,1088.645,375.9Z" transform="translate(-919.319 -336.947)" fill="#ffb8b8"/>
      <path id="Caminho_10651" data-name="Caminho 10651" d="M969.486,377.034l-9.262-2.646s-4.9-1.985-4.763-.794,9,7.938,11.908,7.542S969.486,377.034,969.486,377.034Z" transform="translate(-809.422 -335.039)" fill="#ffb8b8"/>
      <path id="Caminho_10652" data-name="Caminho 10652" d="M1028.471,377.683s-3.043-.4-3.7.265-1.918.066-1.918.066l-2.117,3.837a4.347,4.347,0,0,0-.331,4.3c1.191,2.117-.529,4.9-.529,4.9s9.526,0,11.511,1.058,4.377-8.832,4.377-8.832-2.458-3.01-1.8-4.862a5.989,5.989,0,0,0,.265-3.308l-2.911.265Z" transform="translate(-863.114 -336.613)" fill="#d0cde1"/>
      <path id="Caminho_10653" data-name="Caminho 10653" d="M983.936,684.148l1.059,10.188,4.1-2.117-1.323-8.865Z" transform="translate(-829.958 -584.598)" fill="#ffb8b8"/>
      <path id="Caminho_10654" data-name="Caminho 10654" d="M1076.952,676.726l3.444,9.21,3.307-2.382-4.105-8.945Z" transform="translate(-907.494 -577.309)" fill="#ffb8b8"/>
      <path id="Caminho_10655" data-name="Caminho 10655" d="M977.111,769.825a8.267,8.267,0,0,1-.926,2.117c-.661,1.059-2.249.529-2.249.529s-1.852-1.455-2.249-.794-2.514,3.969-2.514,3.969-7.012,5.822-1.058,6.748,7.145-3.44,7.145-3.44,4.5-1.588,4.631-3.175S977.111,769.825,977.111,769.825Z" transform="translate(-817.973 -665.644)" fill="#2f2e41"/>
      <path id="Caminho_10656" data-name="Caminho 10656" d="M1107.686,759.545s-2.117-.661-1.985.4.926,5.292.926,5.292-1.455,5.954,2.646,4.9,4.234-6.748,4.234-6.748,2.117-7.542.529-7.674-5.425-.529-5.425-.529S1110.994,759.016,1107.686,759.545Z" transform="translate(-934.656 -653.436)" fill="#2f2e41"/>
      <path id="Caminho_10657" data-name="Caminho 10657" d="M1019.136,256.846l-4.038-2.115-5.576.865-1.154,5.1,2.872-.11.8-1.872v1.841l1.325-.051.769-2.98.481,3.172,4.71-.1Z" transform="translate(-850.325 -227.308)" fill="#2f2e41"/>
      <path id="Caminho_10658" data-name="Caminho 10658" d="M983.617,482.955,972.5,480.441s-5.557,9.526-6.351,17.465-4.366,26.991,1.323,27.256,9,.265,9.262-.265-2.779-21.434-2.779-21.434,6.483,25.668,10.056,23.948,7.542-3.969,7.409-5.292-8.732-15.348-8.732-15.348l1.191-12.172a13.307,13.307,0,0,0-1.059-9.394Z" transform="translate(-816.805 -424.421)" fill="#2f2e41"/>
      <path id="Caminho_10659" data-name="Caminho 10659" d="M1032.162,434.621h6.874a24.04,24.04,0,0,0,0-8.2h-6.874A14.749,14.749,0,0,1,1032.162,434.621Z" transform="translate(-873.36 -379.394)" fill="#ff6584"/>
      <path id="Caminho_10660" data-name="Caminho 10660" d="M1067.8,426.806l-11.643-.265s-5.16-3.969-5.292-1.588,5.425,3.7,5.425,3.7,11.946,4.287,13.78,2.408Z" transform="translate(-888.948 -377.534)" fill="#ffb8b8"/>
      <ellipse id="Elipse_1274" data-name="Elipse 1274" cx="2.834" cy="2.834" rx="2.834" ry="2.834" transform="translate(35.747 4.737)" fill="#6c63ff"/>
      <ellipse id="Elipse_1275" data-name="Elipse 1275" cx="2.315" cy="2.316" rx="2.315" ry="2.316" transform="translate(43.822 5.256)" fill="#6c63ff"/>
      <ellipse id="Elipse_1276" data-name="Elipse 1276" cx="1.409" cy="1.409" rx="1.409" ry="1.409" transform="translate(52.285 6.162)" fill="#6c63ff"/>
      <rect id="Retângulo_6334" data-name="Retângulo 6334" width="31.265" height="14.888" transform="translate(62.227 77.866)" fill="#6c63ff"/>
      <rect id="Retângulo_6346" data-name="Retângulo 6346" width="25.842" height="14.888" transform="translate(80.571 77.866)" fill="#6c63ff"/>
      <circle id="Elipse_1354" data-name="Elipse 1354" cx="2.69" cy="2.69" r="2.69" transform="translate(79.44 71.64)" fill="#ff6584"/>
      <rect id="Retângulo_6335" data-name="Retângulo 6335" width="0.088" height="4.879" transform="translate(72.223 86.788)" fill="#3f3d56"/>
      <rect id="Retângulo_6347" data-name="Retângulo 6347" width="0.088" height="4.879" transform="translate(90.566 86.788)" fill="#3f3d56"/>
      <circle id="Elipse_1355" data-name="Elipse 1355" cx="0.69" cy="0.69" r="0.69" transform="translate(71.586 86.098)" fill="#3f3d56"/>
      <circle id="Elipse_1376" data-name="Elipse 1376" cx="0.69" cy="0.69" r="0.69" transform="translate(89.929 86.098)" fill="#3f3d56"/>
      <path id="Caminho_10772" data-name="Caminho 10772" d="M599.335,561.872A1.882,1.882,0,0,0,597.216,560" transform="translate(-527.063 -472.077)" fill="#3f3d56"/>
      <path id="Caminho_10789" data-name="Caminho 10789" d="M599.335,561.872A1.882,1.882,0,0,0,597.216,560" transform="translate(-508.72 -472.077)" fill="#3f3d56"/>
      <rect id="Retângulo_6336" data-name="Retângulo 6336" width="0.088" height="16.274" transform="translate(82.044 75.427)" fill="#3f3d56"/>
      <rect id="Retângulo_6353" data-name="Retângulo 6353" width="0.088" height="16.274" transform="translate(96.878 75.427)" fill="#3f3d56"/>
      <circle id="Elipse_1356" data-name="Elipse 1356" cx="0.69" cy="0.69" r="0.69" transform="translate(81.399 74.73)" fill="#3f3d56"/>
      <circle id="Elipse_1357" data-name="Elipse 1357" cx="0.69" cy="0.69" r="0.69" transform="translate(79.259 86.504)" fill="#3f3d56"/>
      <circle id="Elipse_1386" data-name="Elipse 1386" cx="0.69" cy="0.69" r="0.69" transform="translate(97.602 86.504)" fill="#3f3d56"/>
      <path id="Caminho_10773" data-name="Caminho 10773" d="M730.918,414.962a1.882,1.882,0,0,0-2.119-1.873" transform="translate(-648.84 -336.018)" fill="#3f3d56"/>
      <path id="Caminho_10774" data-name="Caminho 10774" d="M730.918,496.326a1.882,1.882,0,0,0-2.119-1.874" transform="translate(-648.84 -411.373)" fill="#3f3d56"/>
      <path id="Caminho_10775" data-name="Caminho 10775" d="M730.92,554.17l-.087-.009c0-.024.245-2.4-.749-3.592a1.85,1.85,0,0,0-1.33-.677l.007-.088a1.936,1.936,0,0,1,1.391.708C731.168,551.737,730.922,554.146,730.92,554.17Z" transform="translate(-648.797 -462.654)" fill="#3f3d56"/>
      <path id="Caminho_10796" data-name="Caminho 10796" d="M730.92,554.17l-.087-.009c0-.024.245-2.4-.749-3.592a1.85,1.85,0,0,0-1.33-.677l.007-.088a1.936,1.936,0,0,1,1.391.708C731.168,551.737,730.922,554.146,730.92,554.17Z" transform="translate(-630.454 -462.654)" fill="#3f3d56"/>
      <circle id="Elipse_1358" data-name="Elipse 1358" cx="0.69" cy="0.69" r="0.69" transform="translate(83.539 86.504)" fill="#3f3d56"/>
      <circle id="Elipse_1390" data-name="Elipse 1390" cx="0.69" cy="0.69" r="0.69" transform="translate(101.881 86.504)" fill="#3f3d56"/>
      <path id="Caminho_10776" data-name="Caminho 10776" d="M756.552,554.17c0-.024-.249-2.433.769-3.658a1.935,1.935,0,0,1,1.391-.708l.007.088a1.85,1.85,0,0,0-1.33.677c-.994,1.2-.752,3.568-.749,3.592Z" transform="translate(-674.497 -462.654)" fill="#3f3d56"/>
      <path id="Caminho_10800" data-name="Caminho 10800" d="M756.552,554.17c0-.024-.249-2.433.769-3.658a1.935,1.935,0,0,1,1.391-.708l.007.088a1.85,1.85,0,0,0-1.33.677c-.994,1.2-.752,3.568-.749,3.592Z" transform="translate(-656.154 -462.654)" fill="#3f3d56"/>
      <circle id="Elipse_1359" data-name="Elipse 1359" cx="0.69" cy="0.69" r="0.69" transform="translate(83.581 80.032)" fill="#3f3d56"/>
      <path id="Caminho_10777" data-name="Caminho 10777" d="M757.12,466.328c0-.022-.243-2.246.73-3.423a1.98,1.98,0,0,1,1.43-.723l.007.088a1.894,1.894,0,0,0-1.369.692c-.949,1.149-.713,3.335-.71,3.357Z" transform="translate(-675.024 -381.503)" fill="#3f3d56"/>
      <rect id="Retângulo_6337" data-name="Retângulo 6337" width="0.088" height="9.934" transform="translate(77.425 81.745)" fill="#3f3d56"/>
      <rect id="Retângulo_6351" data-name="Retângulo 6351" width="0.088" height="9.934" transform="translate(95.768 81.745)" fill="#3f3d56"/>
      <circle id="Elipse_1360" data-name="Elipse 1360" cx="0.69" cy="0.69" r="0.69" transform="translate(76.783 81.055)" fill="#3f3d56"/>
      <circle id="Elipse_1387" data-name="Elipse 1387" cx="0.69" cy="0.69" r="0.69" transform="translate(95.127 81.055)" fill="#3f3d56"/>
      <path id="Caminho_10778" data-name="Caminho 10778" d="M669.033,490.921a1.882,1.882,0,0,0-2.119-1.873" transform="translate(-591.566 -406.367)" fill="#3f3d56"/>
      <path id="Caminho_10793" data-name="Caminho 10793" d="M669.033,490.921a1.882,1.882,0,0,0-2.119-1.873" transform="translate(-573.223 -406.367)" fill="#3f3d56"/>
      <path id="Caminho_10779" data-name="Caminho 10779" d="M669.034,554.41l-.087-.009c0-.023.243-2.359-.742-3.545a1.86,1.86,0,0,0-1.337-.68l.007-.088a1.944,1.944,0,0,1,1.4.711C669.281,552.015,669.037,554.387,669.034,554.41Z" transform="translate(-591.523 -462.917)" fill="#3f3d56"/>
      <path id="Caminho_10790" data-name="Caminho 10790" d="M669.034,554.41l-.087-.009c0-.023.243-2.359-.742-3.545a1.86,1.86,0,0,0-1.337-.68l.007-.088a1.944,1.944,0,0,1,1.4.711C669.281,552.015,669.037,554.387,669.034,554.41Z" transform="translate(-573.18 -462.917)" fill="#3f3d56"/>
      <circle id="Elipse_1361" data-name="Elipse 1361" cx="0.69" cy="0.69" r="0.69" transform="translate(74.644 86.525)" fill="#3f3d56"/>
      <circle id="Elipse_1377" data-name="Elipse 1377" cx="0.69" cy="0.69" r="0.69" transform="translate(92.987 86.525)" fill="#3f3d56"/>
      <rect id="Retângulo_6338" data-name="Retângulo 6338" width="14.243" height="0.088" transform="translate(69.929 91.625)" fill="#3f3d56"/>
      <rect id="Retângulo_6348" data-name="Retângulo 6348" width="14.243" height="0.088" transform="translate(88.272 91.625)" fill="#3f3d56"/>
      <rect id="Retângulo_6339" data-name="Retângulo 6339" width="45.284" height="2.127" transform="translate(51.433 67.512)" fill="#3f3d56"/>
      <circle id="Elipse_1362" data-name="Elipse 1362" cx="0.443" cy="0.443" r="0.443" transform="translate(75.901 95.161)" fill="#3f3d56"/>
      <circle id="Elipse_1363" data-name="Elipse 1363" cx="0.443" cy="0.443" r="0.443" transform="translate(77.154 95.161)" fill="#3f3d56"/>
      <circle id="Elipse_1364" data-name="Elipse 1364" cx="0.443" cy="0.443" r="0.443" transform="translate(78.407 95.161)" fill="#3f3d56"/>
      <rect id="Retângulo_6340" data-name="Retângulo 6340" width="56.45" height="14.888" transform="translate(42.784 77.866)" fill="#6c63ff"/>
      <rect id="Retângulo_6341" data-name="Retângulo 6341" width="0.088" height="4.879" transform="translate(72.223 86.788)" fill="#3f3d56"/>
      <rect id="Retângulo_6349" data-name="Retângulo 6349" width="0.088" height="4.879" transform="translate(90.566 86.788)" fill="#3f3d56"/>
      <circle id="Elipse_1366" data-name="Elipse 1366" cx="0.69" cy="0.69" r="0.69" transform="translate(71.586 86.098)" fill="#3f3d56"/>
      <circle id="Elipse_1379" data-name="Elipse 1379" cx="0.69" cy="0.69" r="0.69" transform="translate(89.929 86.098)" fill="#3f3d56"/>
      <path id="Caminho_10781" data-name="Caminho 10781" d="M599.335,561.872A1.882,1.882,0,0,0,597.216,560" transform="translate(-527.063 -472.077)" fill="#3f3d56"/>
      <path id="Caminho_10791" data-name="Caminho 10791" d="M599.335,561.872A1.882,1.882,0,0,0,597.216,560" transform="translate(-508.72 -472.077)" fill="#3f3d56"/>
      <rect id="Retângulo_6342" data-name="Retângulo 6342" width="0.088" height="16.274" transform="translate(82.044 75.427)" fill="#3f3d56"/>
      <rect id="Retângulo_6354" data-name="Retângulo 6354" width="0.088" height="16.274" transform="translate(96.878 75.427)" fill="#3f3d56"/>
      <circle id="Elipse_1367" data-name="Elipse 1367" cx="0.69" cy="0.69" r="0.69" transform="translate(81.399 74.73)" fill="#3f3d56"/>
      <circle id="Elipse_1396" data-name="Elipse 1396" cx="0.69" cy="0.69" r="0.69" transform="translate(96.232 74.73)" fill="#3f3d56"/>
      <circle id="Elipse_1368" data-name="Elipse 1368" cx="0.69" cy="0.69" r="0.69" transform="translate(79.259 86.504)" fill="#3f3d56"/>
      <circle id="Elipse_1388" data-name="Elipse 1388" cx="0.69" cy="0.69" r="0.69" transform="translate(97.602 86.504)" fill="#3f3d56"/>
      <path id="Caminho_10782" data-name="Caminho 10782" d="M730.918,414.962a1.882,1.882,0,0,0-2.119-1.873" transform="translate(-648.84 -336.018)" fill="#3f3d56"/>
      <path id="Caminho_10802" data-name="Caminho 10802" d="M730.918,414.962a1.882,1.882,0,0,0-2.119-1.873" transform="translate(-634.006 -336.018)" fill="#3f3d56"/>
      <path id="Caminho_10783" data-name="Caminho 10783" d="M730.918,496.326a1.882,1.882,0,0,0-2.119-1.874" transform="translate(-648.84 -411.373)" fill="#3f3d56"/>
      <path id="Caminho_10797" data-name="Caminho 10797" d="M730.918,496.326a1.882,1.882,0,0,0-2.119-1.874" transform="translate(-634.006 -415.36)" fill="#3f3d56"/>
      <path id="Caminho_10784" data-name="Caminho 10784" d="M730.92,554.17l-.087-.009c0-.024.245-2.4-.749-3.592a1.85,1.85,0,0,0-1.33-.677l.007-.088a1.936,1.936,0,0,1,1.391.708C731.168,551.737,730.922,554.146,730.92,554.17Z" transform="translate(-648.797 -462.654)" fill="#3f3d56"/>
      <path id="Caminho_10798" data-name="Caminho 10798" d="M730.92,554.17l-.087-.009c0-.024.245-2.4-.749-3.592a1.85,1.85,0,0,0-1.33-.677l.007-.088a1.936,1.936,0,0,1,1.391.708C731.168,551.737,730.922,554.146,730.92,554.17Z" transform="translate(-630.454 -462.654)" fill="#3f3d56"/>
      <circle id="Elipse_1369" data-name="Elipse 1369" cx="0.69" cy="0.69" r="0.69" transform="translate(83.539 86.504)" fill="#3f3d56"/>
      <circle id="Elipse_1392" data-name="Elipse 1392" cx="0.69" cy="0.69" r="0.69" transform="translate(101.881 86.504)" fill="#3f3d56"/>
      <path id="Caminho_10785" data-name="Caminho 10785" d="M756.552,554.17c0-.024-.249-2.433.769-3.658a1.935,1.935,0,0,1,1.391-.708l.007.088a1.85,1.85,0,0,0-1.33.677c-.994,1.2-.752,3.568-.749,3.592Z" transform="translate(-674.497 -462.654)" fill="#3f3d56"/>
      <path id="Caminho_10803" data-name="Caminho 10803" d="M756.552,554.17c0-.024-.249-2.433.769-3.658a1.935,1.935,0,0,1,1.391-.708l.007.088a1.85,1.85,0,0,0-1.33.677c-.994,1.2-.752,3.568-.749,3.592Z" transform="translate(-656.154 -462.654)" fill="#3f3d56"/>
      <circle id="Elipse_1370" data-name="Elipse 1370" cx="0.69" cy="0.69" r="0.69" transform="translate(83.581 80.032)" fill="#3f3d56"/>
      <circle id="Elipse_1393" data-name="Elipse 1393" cx="0.69" cy="0.69" r="0.69" transform="translate(97.777 80.032)" fill="#3f3d56"/>
      <path id="Caminho_10786" data-name="Caminho 10786" d="M757.12,466.328c0-.022-.243-2.246.73-3.423a1.98,1.98,0,0,1,1.43-.723l.007.088a1.894,1.894,0,0,0-1.369.692c-.949,1.149-.713,3.335-.71,3.357Z" transform="translate(-675.024 -381.503)" fill="#3f3d56"/>
      <path id="Caminho_10804" data-name="Caminho 10804" d="M757.12,466.328c0-.022-.243-2.246.73-3.423a1.98,1.98,0,0,1,1.43-.723l.007.088a1.894,1.894,0,0,0-1.369.692c-.949,1.149-.713,3.335-.71,3.357Z" transform="translate(-660.19 -381.503)" fill="#3f3d56"/>
      <rect id="Retângulo_6343" data-name="Retângulo 6343" width="0.088" height="9.934" transform="translate(77.425 81.745)" fill="#3f3d56"/>
      <rect id="Retângulo_6352" data-name="Retângulo 6352" width="0.088" height="9.934" transform="translate(95.768 81.745)" fill="#3f3d56"/>
      <circle id="Elipse_1371" data-name="Elipse 1371" cx="0.69" cy="0.69" r="0.69" transform="translate(76.783 81.055)" fill="#3f3d56"/>
      <circle id="Elipse_1389" data-name="Elipse 1389" cx="0.69" cy="0.69" r="0.69" transform="translate(95.127 81.055)" fill="#3f3d56"/>
      <path id="Caminho_10787" data-name="Caminho 10787" d="M669.033,490.921a1.882,1.882,0,0,0-2.119-1.873" transform="translate(-591.566 -406.367)" fill="#3f3d56"/>
      <path id="Caminho_10794" data-name="Caminho 10794" d="M669.033,490.921a1.882,1.882,0,0,0-2.119-1.873" transform="translate(-573.223 -406.367)" fill="#3f3d56"/>
      <path id="Caminho_10788" data-name="Caminho 10788" d="M669.034,554.41l-.087-.009c0-.023.243-2.359-.742-3.545a1.86,1.86,0,0,0-1.337-.68l.007-.088a1.944,1.944,0,0,1,1.4.711C669.281,552.015,669.037,554.387,669.034,554.41Z" transform="translate(-591.523 -462.917)" fill="#3f3d56"/>
      <path id="Caminho_10792" data-name="Caminho 10792" d="M669.034,554.41l-.087-.009c0-.023.243-2.359-.742-3.545a1.86,1.86,0,0,0-1.337-.68l.007-.088a1.944,1.944,0,0,1,1.4.711C669.281,552.015,669.037,554.387,669.034,554.41Z" transform="translate(-573.18 -462.917)" fill="#3f3d56"/>
      <circle id="Elipse_1372" data-name="Elipse 1372" cx="0.69" cy="0.69" r="0.69" transform="translate(74.644 86.525)" fill="#3f3d56"/>
      <circle id="Elipse_1380" data-name="Elipse 1380" cx="0.69" cy="0.69" r="0.69" transform="translate(92.987 86.525)" fill="#3f3d56"/>
      <rect id="Retângulo_6344" data-name="Retângulo 6344" width="36.414" height="0.088" transform="translate(69.929 91.625)" fill="#3f3d56"/>
      <rect id="Retângulo_6350" data-name="Retângulo 6350" width="14.243" height="0.088" transform="translate(88.272 91.625)" fill="#3f3d56"/>
      <rect id="Retângulo_6345" data-name="Retângulo 6345" width="59.88" height="2.127" transform="translate(44.681 67.512)" fill="#3f3d56"/>
      <circle id="Elipse_1373" data-name="Elipse 1373" cx="0.443" cy="0.443" r="0.443" transform="translate(75.901 95.161)" fill="#3f3d56"/>
      <circle id="Elipse_1374" data-name="Elipse 1374" cx="0.443" cy="0.443" r="0.443" transform="translate(77.154 95.161)" fill="#3f3d56"/>
      <circle id="Elipse_1375" data-name="Elipse 1375" cx="0.443" cy="0.443" r="0.443" transform="translate(78.407 95.161)" fill="#3f3d56"/>
      <rect id="Retângulo_6358" data-name="Retângulo 6358" width="24.975" height="0.692" transform="translate(34.08 11.969)" fill="#ccc"/>
      <rect id="Retângulo_6382" data-name="Retângulo 6382" width="24.975" height="0.692" transform="translate(34.08 2.737)" fill="#ccc"/>
      <rect id="Retângulo_6359" data-name="Retângulo 6359" width="24.975" height="0.692" transform="translate(34.08 13.988)" fill="#ccc"/>
      <rect id="Retângulo_6360" data-name="Retângulo 6360" width="24.975" height="0.692" transform="translate(34.08 16.007)" fill="#ccc"/>
      <rect id="Retângulo_6383" data-name="Retângulo 6383" width="24.975" height="0.692" transform="translate(34.08 17.985)" fill="#ccc"/>
      <rect id="Retângulo_6381" data-name="Retângulo 6381" width="25.244" height="1.495" transform="translate(34.08 20.54)" fill="#3f3d56"/>
      <rect id="Retângulo_6384" data-name="Retângulo 6384" width="13.205" height="2.041" transform="translate(101.296 18.361)" fill="#3f3d56"/>
      <g id="Grupo_16054" data-name="Grupo 16054" transform="translate(32.748 23.69)">
        <rect id="Retângulo_6361" data-name="Retângulo 6361" width="11.388" height="12.31" transform="translate(7.733 4.093)" fill="#6c63ff"/>
        <rect id="Retângulo_6362" data-name="Retângulo 6362" width="27.44" height="12.31" transform="translate(0.137 4.093)" fill="#6c63ff"/>
        <ellipse id="Elipse_1397" data-name="Elipse 1397" cx="1.574" cy="1.696" rx="1.574" ry="1.696" transform="translate(10.898)" fill="#ff6584"/>
        <rect id="Retângulo_6363" data-name="Retângulo 6363" width="0.051" height="4.034" transform="translate(6.674 11.47)" fill="#3f3d56"/>
        <rect id="Retângulo_6364" data-name="Retângulo 6364" width="0.051" height="4.034" transform="translate(17.408 11.47)" fill="#3f3d56"/>
        <ellipse id="Elipse_1398" data-name="Elipse 1398" cx="0.404" cy="0.57" rx="0.404" ry="0.57" transform="translate(6.302 10.899)" fill="#3f3d56"/>
        <ellipse id="Elipse_1399" data-name="Elipse 1399" cx="0.404" cy="0.57" rx="0.404" ry="0.57" transform="translate(17.036 10.899)" fill="#3f3d56"/>
        <path id="Caminho_10805" data-name="Caminho 10805" d="M598.456,561.545s-.058-1.753-1.24-1.549" transform="translate(-591.753 -547.589)" fill="#3f3d56"/>
        <path id="Caminho_10806" data-name="Caminho 10806" d="M598.456,561.545s-.058-1.753-1.24-1.549" transform="translate(-581.019 -547.589)" fill="#3f3d56"/>
        <rect id="Retângulo_6365" data-name="Retângulo 6365" width="0.051" height="13.456" transform="translate(12.422 2.076)" fill="#3f3d56"/>
        <rect id="Retângulo_6366" data-name="Retângulo 6366" width="0.051" height="13.456" transform="translate(21.102 2.076)" fill="#3f3d56"/>
        <ellipse id="Elipse_1400" data-name="Elipse 1400" cx="0.404" cy="0.57" rx="0.404" ry="0.57" transform="translate(12.044 1.499)" fill="#3f3d56"/>
        <ellipse id="Elipse_1401" data-name="Elipse 1401" cx="0.404" cy="0.57" rx="0.404" ry="0.57" transform="translate(10.792 11.235)" fill="#3f3d56"/>
        <ellipse id="Elipse_1402" data-name="Elipse 1402" cx="0.404" cy="0.57" rx="0.404" ry="0.57" transform="translate(21.526 11.235)" fill="#3f3d56"/>
        <path id="Caminho_10807" data-name="Caminho 10807" d="M730.039,414.634s-.058-1.753-1.24-1.549" transform="translate(-717.597 -409.65)" fill="#3f3d56"/>
        <path id="Caminho_10808" data-name="Caminho 10808" d="M730.039,496s-.058-1.753-1.24-1.549" transform="translate(-717.597 -486.046)" fill="#3f3d56"/>
        <path id="Caminho_10809" data-name="Caminho 10809" d="M730.021,553.414l-.051-.008a6.527,6.527,0,0,0-.438-2.97,1.026,1.026,0,0,0-.778-.56l0-.073a1.073,1.073,0,0,1,.814.586A6.625,6.625,0,0,1,730.021,553.414Z" transform="translate(-717.553 -538.035)" fill="#3f3d56"/>
        <path id="Caminho_10810" data-name="Caminho 10810" d="M730.021,553.414l-.051-.008a6.527,6.527,0,0,0-.438-2.97,1.026,1.026,0,0,0-.778-.56l0-.073a1.073,1.073,0,0,1,.814.586A6.625,6.625,0,0,1,730.021,553.414Z" transform="translate(-706.819 -538.035)" fill="#3f3d56"/>
        <ellipse id="Elipse_1403" data-name="Elipse 1403" cx="0.404" cy="0.57" rx="0.404" ry="0.57" transform="translate(13.296 11.235)" fill="#3f3d56"/>
        <ellipse id="Elipse_1404" data-name="Elipse 1404" cx="0.404" cy="0.57" rx="0.404" ry="0.57" transform="translate(24.03 11.235)" fill="#3f3d56"/>
        <path id="Caminho_10811" data-name="Caminho 10811" d="M756.54,553.414a6.625,6.625,0,0,1,.45-3.024,1.073,1.073,0,0,1,.814-.586l0,.073a1.025,1.025,0,0,0-.778.56,6.522,6.522,0,0,0-.438,2.97Z" transform="translate(-744.112 -538.035)" fill="#3f3d56"/>
        <path id="Caminho_10812" data-name="Caminho 10812" d="M756.54,553.414a6.625,6.625,0,0,1,.45-3.024,1.073,1.073,0,0,1,.814-.586l0,.073a1.025,1.025,0,0,0-.778.56,6.522,6.522,0,0,0-.438,2.97Z" transform="translate(-733.378 -538.035)" fill="#3f3d56"/>
        <ellipse id="Elipse_1405" data-name="Elipse 1405" cx="0.404" cy="0.57" rx="0.404" ry="0.57" transform="translate(13.321 5.883)" fill="#3f3d56"/>
        <path id="Caminho_10813" data-name="Caminho 10813" d="M757.109,465.609a6.1,6.1,0,0,1,.427-2.83,1.1,1.1,0,0,1,.837-.6l0,.072a1.047,1.047,0,0,0-.8.572,6,6,0,0,0-.416,2.776Z" transform="translate(-744.656 -455.763)" fill="#3f3d56"/>
        <rect id="Retângulo_6367" data-name="Retângulo 6367" width="0.051" height="8.213" transform="translate(9.719 7.299)" fill="#3f3d56"/>
        <rect id="Retângulo_6368" data-name="Retângulo 6368" width="0.051" height="8.213" transform="translate(20.453 7.299)" fill="#3f3d56"/>
        <ellipse id="Elipse_1406" data-name="Elipse 1406" cx="0.404" cy="0.57" rx="0.404" ry="0.57" transform="translate(9.343 6.729)" fill="#3f3d56"/>
        <ellipse id="Elipse_1407" data-name="Elipse 1407" cx="0.404" cy="0.57" rx="0.404" ry="0.57" transform="translate(20.077 6.729)" fill="#3f3d56"/>
        <path id="Caminho_10814" data-name="Caminho 10814" d="M668.154,490.593s-.058-1.753-1.24-1.549" transform="translate(-658.411 -480.97)" fill="#3f3d56"/>
        <path id="Caminho_10815" data-name="Caminho 10815" d="M668.154,490.593s-.058-1.753-1.24-1.549" transform="translate(-647.677 -480.97)" fill="#3f3d56"/>
        <path id="Caminho_10816" data-name="Caminho 10816" d="M668.135,553.662l-.051-.008a6.421,6.421,0,0,0-.434-2.931,1.03,1.03,0,0,0-.783-.562l0-.073a1.078,1.078,0,0,1,.818.588A6.52,6.52,0,0,1,668.135,553.662Z" transform="translate(-658.366 -538.302)" fill="#3f3d56"/>
        <path id="Caminho_10817" data-name="Caminho 10817" d="M668.135,553.662l-.051-.008a6.421,6.421,0,0,0-.434-2.931,1.03,1.03,0,0,0-.783-.562l0-.073a1.078,1.078,0,0,1,.818.588A6.52,6.52,0,0,1,668.135,553.662Z" transform="translate(-647.633 -538.302)" fill="#3f3d56"/>
        <ellipse id="Elipse_1408" data-name="Elipse 1408" cx="0.404" cy="0.57" rx="0.404" ry="0.57" transform="translate(8.091 11.252)" fill="#3f3d56"/>
        <ellipse id="Elipse_1409" data-name="Elipse 1409" cx="0.404" cy="0.57" rx="0.404" ry="0.57" transform="translate(18.825 11.252)" fill="#3f3d56"/>
        <rect id="Retângulo_6369" data-name="Retângulo 6369" width="8.335" height="0.073" transform="translate(5.332 15.469)" fill="#3f3d56"/>
        <rect id="Retângulo_6370" data-name="Retângulo 6370" width="8.335" height="0.073" transform="translate(16.066 15.469)" fill="#3f3d56"/>
        <rect id="Retângulo_6373" data-name="Retângulo 6373" width="0.051" height="4.034" transform="translate(6.674 11.47)" fill="#3f3d56"/>
        <rect id="Retângulo_6374" data-name="Retângulo 6374" width="0.051" height="4.034" transform="translate(17.408 11.47)" fill="#3f3d56"/>
        <ellipse id="Elipse_1413" data-name="Elipse 1413" cx="0.404" cy="0.57" rx="0.404" ry="0.57" transform="translate(6.302 10.899)" fill="#3f3d56"/>
        <ellipse id="Elipse_1414" data-name="Elipse 1414" cx="0.404" cy="0.57" rx="0.404" ry="0.57" transform="translate(17.036 10.899)" fill="#3f3d56"/>
        <path id="Caminho_10818" data-name="Caminho 10818" d="M598.456,561.545s-.058-1.753-1.24-1.549" transform="translate(-591.753 -547.589)" fill="#3f3d56"/>
        <path id="Caminho_10819" data-name="Caminho 10819" d="M598.456,561.545s-.058-1.753-1.24-1.549" transform="translate(-581.019 -547.589)" fill="#3f3d56"/>
        <rect id="Retângulo_6375" data-name="Retângulo 6375" width="0.051" height="13.456" transform="translate(12.422 2.076)" fill="#3f3d56"/>
        <rect id="Retângulo_6376" data-name="Retângulo 6376" width="0.051" height="13.456" transform="translate(21.102 2.076)" fill="#3f3d56"/>
        <ellipse id="Elipse_1415" data-name="Elipse 1415" cx="0.404" cy="0.57" rx="0.404" ry="0.57" transform="translate(12.044 1.499)" fill="#3f3d56"/>
        <ellipse id="Elipse_1416" data-name="Elipse 1416" cx="0.404" cy="0.57" rx="0.404" ry="0.57" transform="translate(20.724 1.499)" fill="#3f3d56"/>
        <ellipse id="Elipse_1417" data-name="Elipse 1417" cx="0.404" cy="0.57" rx="0.404" ry="0.57" transform="translate(10.792 11.235)" fill="#3f3d56"/>
        <ellipse id="Elipse_1418" data-name="Elipse 1418" cx="0.404" cy="0.57" rx="0.404" ry="0.57" transform="translate(21.526 11.235)" fill="#3f3d56"/>
        <path id="Caminho_10820" data-name="Caminho 10820" d="M730.039,414.634s-.058-1.753-1.24-1.549" transform="translate(-717.597 -409.65)" fill="#3f3d56"/>
        <path id="Caminho_10821" data-name="Caminho 10821" d="M730.039,414.634s-.058-1.753-1.24-1.549" transform="translate(-708.917 -409.65)" fill="#3f3d56"/>
        <path id="Caminho_10822" data-name="Caminho 10822" d="M730.039,496s-.058-1.753-1.24-1.549" transform="translate(-717.597 -486.046)" fill="#3f3d56"/>
        <path id="Caminho_10823" data-name="Caminho 10823" d="M730.039,496s-.058-1.753-1.24-1.549" transform="translate(-708.917 -489.343)" fill="#3f3d56"/>
        <path id="Caminho_10824" data-name="Caminho 10824" d="M730.021,553.414l-.051-.008a6.527,6.527,0,0,0-.438-2.97,1.026,1.026,0,0,0-.778-.56l0-.073a1.073,1.073,0,0,1,.814.586A6.625,6.625,0,0,1,730.021,553.414Z" transform="translate(-717.553 -538.035)" fill="#3f3d56"/>
        <path id="Caminho_10825" data-name="Caminho 10825" d="M730.021,553.414l-.051-.008a6.527,6.527,0,0,0-.438-2.97,1.026,1.026,0,0,0-.778-.56l0-.073a1.073,1.073,0,0,1,.814.586A6.625,6.625,0,0,1,730.021,553.414Z" transform="translate(-706.819 -538.035)" fill="#3f3d56"/>
        <ellipse id="Elipse_1419" data-name="Elipse 1419" cx="0.404" cy="0.57" rx="0.404" ry="0.57" transform="translate(13.296 11.235)" fill="#3f3d56"/>
        <ellipse id="Elipse_1420" data-name="Elipse 1420" cx="0.404" cy="0.57" rx="0.404" ry="0.57" transform="translate(24.03 11.235)" fill="#3f3d56"/>
        <path id="Caminho_10826" data-name="Caminho 10826" d="M756.54,553.414a6.625,6.625,0,0,1,.45-3.024,1.073,1.073,0,0,1,.814-.586l0,.073a1.025,1.025,0,0,0-.778.56,6.522,6.522,0,0,0-.438,2.97Z" transform="translate(-744.112 -538.035)" fill="#3f3d56"/>
        <path id="Caminho_10827" data-name="Caminho 10827" d="M756.54,553.414a6.625,6.625,0,0,1,.45-3.024,1.073,1.073,0,0,1,.814-.586l0,.073a1.025,1.025,0,0,0-.778.56,6.522,6.522,0,0,0-.438,2.97Z" transform="translate(-733.378 -538.035)" fill="#3f3d56"/>
        <ellipse id="Elipse_1421" data-name="Elipse 1421" cx="0.404" cy="0.57" rx="0.404" ry="0.57" transform="translate(13.321 5.883)" fill="#3f3d56"/>
        <ellipse id="Elipse_1422" data-name="Elipse 1422" cx="0.404" cy="0.57" rx="0.404" ry="0.57" transform="translate(21.628 5.883)" fill="#3f3d56"/>
        <path id="Caminho_10828" data-name="Caminho 10828" d="M757.109,465.609a6.1,6.1,0,0,1,.427-2.83,1.1,1.1,0,0,1,.837-.6l0,.072a1.047,1.047,0,0,0-.8.572,6,6,0,0,0-.416,2.776Z" transform="translate(-744.656 -455.763)" fill="#3f3d56"/>
        <path id="Caminho_10829" data-name="Caminho 10829" d="M757.109,465.609a6.1,6.1,0,0,1,.427-2.83,1.1,1.1,0,0,1,.837-.6l0,.072a1.047,1.047,0,0,0-.8.572,6,6,0,0,0-.416,2.776Z" transform="translate(-735.976 -455.763)" fill="#3f3d56"/>
        <rect id="Retângulo_6377" data-name="Retângulo 6377" width="0.051" height="8.213" transform="translate(9.719 7.299)" fill="#3f3d56"/>
        <rect id="Retângulo_6378" data-name="Retângulo 6378" width="0.051" height="8.213" transform="translate(20.453 7.299)" fill="#3f3d56"/>
        <ellipse id="Elipse_1423" data-name="Elipse 1423" cx="0.404" cy="0.57" rx="0.404" ry="0.57" transform="translate(9.343 6.729)" fill="#3f3d56"/>
        <ellipse id="Elipse_1424" data-name="Elipse 1424" cx="0.404" cy="0.57" rx="0.404" ry="0.57" transform="translate(20.077 6.729)" fill="#3f3d56"/>
        <path id="Caminho_10830" data-name="Caminho 10830" d="M668.154,490.593s-.058-1.753-1.24-1.549" transform="translate(-658.411 -480.97)" fill="#3f3d56"/>
        <path id="Caminho_10831" data-name="Caminho 10831" d="M668.154,490.593s-.058-1.753-1.24-1.549" transform="translate(-647.677 -480.97)" fill="#3f3d56"/>
        <path id="Caminho_10832" data-name="Caminho 10832" d="M668.135,553.662l-.051-.008a6.421,6.421,0,0,0-.434-2.931,1.03,1.03,0,0,0-.783-.562l0-.073a1.078,1.078,0,0,1,.818.588A6.52,6.52,0,0,1,668.135,553.662Z" transform="translate(-658.366 -538.302)" fill="#3f3d56"/>
        <path id="Caminho_10833" data-name="Caminho 10833" d="M668.135,553.662l-.051-.008a6.421,6.421,0,0,0-.434-2.931,1.03,1.03,0,0,0-.783-.562l0-.073a1.078,1.078,0,0,1,.818.588A6.52,6.52,0,0,1,668.135,553.662Z" transform="translate(-647.633 -538.302)" fill="#3f3d56"/>
        <ellipse id="Elipse_1425" data-name="Elipse 1425" cx="0.404" cy="0.57" rx="0.404" ry="0.57" transform="translate(8.091 11.252)" fill="#3f3d56"/>
        <ellipse id="Elipse_1426" data-name="Elipse 1426" cx="0.404" cy="0.57" rx="0.404" ry="0.57" transform="translate(18.825 11.252)" fill="#3f3d56"/>
        <rect id="Retângulo_6379" data-name="Retângulo 6379" width="27.307" height="0.073" transform="translate(0 15.469)" fill="#3f3d56"/>
        <g id="Grupo_16058" data-name="Grupo 16058" transform="translate(12.133 18.393)">
          <ellipse id="Elipse_1427" data-name="Elipse 1427" cx="0.366" cy="0.366" rx="0.366" ry="0.366" fill="#3f3d56"/>
          <ellipse id="Elipse_1428" data-name="Elipse 1428" cx="0.366" cy="0.366" rx="0.366" ry="0.366" transform="translate(1.036)" fill="#3f3d56"/>
          <ellipse id="Elipse_1429" data-name="Elipse 1429" cx="0.366" cy="0.366" rx="0.366" ry="0.366" transform="translate(2.072)" fill="#3f3d56"/>
        </g>
      </g>
      <g id="Grupo_16055" data-name="Grupo 16055" transform="translate(99.999 21.714)">
        <path id="Retângulo_6362-2" data-name="Retângulo 6362" d="M0,0H15.258a0,0,0,0,1,0,0V11.4a3,3,0,0,1-3,3H3a3,3,0,0,1-3-3V0A0,0,0,0,1,0,0Z" transform="translate(0.053 5.328)" fill="#6c63ff"/>
        <ellipse id="Elipse_1397-2" data-name="Elipse 1397" cx="2.052" cy="2.099" rx="2.052" ry="2.099" transform="translate(8.347 0)" fill="#ff6584"/>
        <rect id="Retângulo_6363-2" data-name="Retângulo 6363" width="0.067" height="5.26" transform="translate(2.841 12.37)" fill="#3f3d56"/>
        <ellipse id="Elipse_1398-2" data-name="Elipse 1398" cx="0.526" cy="0.744" rx="0.526" ry="0.744" transform="translate(2.355 11.656)" fill="#3f3d56"/>
        <path id="Caminho_10805-2" data-name="Caminho 10805" d="M598.833,562.02s-.075-2.285-1.617-2.02" transform="translate(-595.954 -546.39)" fill="#3f3d56"/>
        <ellipse id="Elipse_1401-2" data-name="Elipse 1401" cx="0.526" cy="0.744" rx="0.526" ry="0.744" transform="translate(8.209 12.092)" fill="#3f3d56"/>
        <path id="Caminho_10808-2" data-name="Caminho 10808" d="M730.416,496.474s-.075-2.285-1.617-2.02" transform="translate(-720.055 -486.038)" fill="#3f3d56"/>
        <path id="Caminho_10809-2" data-name="Caminho 10809" d="M730.406,554.511l-.067-.01a8.508,8.508,0,0,0-.572-3.872,1.337,1.337,0,0,0-1.014-.73l.005-.094a1.4,1.4,0,0,1,1.061.764A8.636,8.636,0,0,1,730.406,554.511Z" transform="translate(-720.012 -537.044)" fill="#3f3d56"/>
        <ellipse id="Elipse_1403-2" data-name="Elipse 1403" cx="0.526" cy="0.744" rx="0.526" ry="0.744" transform="translate(11.474 12.092)" fill="#3f3d56"/>
        <path id="Caminho_10811-2" data-name="Caminho 10811" d="M756.545,554.511a8.639,8.639,0,0,1,.587-3.943,1.4,1.4,0,0,1,1.061-.764l.005.094a1.337,1.337,0,0,0-1.015.73,8.506,8.506,0,0,0-.572,3.872Z" transform="translate(-746.203 -537.044)" fill="#3f3d56"/>
        <ellipse id="Elipse_1405-2" data-name="Elipse 1405" cx="0.526" cy="0.744" rx="0.526" ry="0.744" transform="translate(11.507 5.146)" fill="#3f3d56"/>
        <path id="Caminho_10813-2" data-name="Caminho 10813" d="M757.114,466.651a7.95,7.95,0,0,1,.557-3.69,1.428,1.428,0,0,1,1.091-.78l.005.094a1.366,1.366,0,0,0-1.044.746,7.818,7.818,0,0,0-.542,3.619Z" transform="translate(-746.739 -456.346)" fill="#3f3d56"/>
        <rect id="Retângulo_6367-2" data-name="Retângulo 6367" width="0.067" height="10.709" transform="translate(6.81 6.933)" fill="#3f3d56"/>
        <ellipse id="Elipse_1406-2" data-name="Elipse 1406" cx="0.526" cy="0.744" rx="0.526" ry="0.744" transform="translate(6.321 6.244)" fill="#3f3d56"/>
        <path id="Caminho_10814-2" data-name="Caminho 10814" d="M668.531,491.069s-.075-2.285-1.617-2.02" transform="translate(-661.689 -481.061)" fill="#3f3d56"/>
        <path id="Caminho_10816-2" data-name="Caminho 10816" d="M668.521,554.747l-.067-.01a8.373,8.373,0,0,0-.566-3.822,1.343,1.343,0,0,0-1.02-.733l.005-.094a1.4,1.4,0,0,1,1.067.767A8.5,8.5,0,0,1,668.521,554.747Z" transform="translate(-661.645 -537.305)" fill="#3f3d56"/>
        <ellipse id="Elipse_1408-2" data-name="Elipse 1408" cx="0.526" cy="0.744" rx="0.526" ry="0.744" transform="translate(4.688 12.114)" fill="#3f3d56"/>
        <rect id="Retângulo_6369-2" data-name="Retângulo 6369" width="15.285" height="0.078" transform="translate(0 17.598)" fill="#3f3d56"/>
        <rect id="Retângulo_6373-2" data-name="Retângulo 6373" width="0.067" height="5.26" transform="translate(2.841 12.37)" fill="#3f3d56"/>
        <ellipse id="Elipse_1413-2" data-name="Elipse 1413" cx="0.526" cy="0.744" rx="0.526" ry="0.744" transform="translate(2.355 11.656)" fill="#3f3d56"/>
        <path id="Caminho_10818-2" data-name="Caminho 10818" d="M598.833,562.02s-.075-2.285-1.617-2.02" transform="translate(-595.954 -546.39)" fill="#3f3d56"/>
        <rect id="Retângulo_6375-2" data-name="Retângulo 6375" width="0.067" height="14.758" transform="translate(10.334 2.909)" fill="#3f3d56"/>
        <ellipse id="Elipse_1415-2" data-name="Elipse 1415" cx="0.526" cy="0.744" rx="0.526" ry="0.744" transform="translate(9.842 1.872)" fill="#3f3d56"/>
        <ellipse id="Elipse_1417-2" data-name="Elipse 1417" cx="0.526" cy="0.744" rx="0.526" ry="0.744" transform="translate(8.209 12.092)" fill="#3f3d56"/>
        <path id="Caminho_10820-2" data-name="Caminho 10820" d="M730.416,415.11s-.075-2.285-1.617-2.02" transform="translate(-720.055 -408.715)" fill="#3f3d56"/>
        <path id="Caminho_10822-2" data-name="Caminho 10822" d="M730.416,496.474s-.075-2.285-1.617-2.02" transform="translate(-720.055 -486.038)" fill="#3f3d56"/>
        <path id="Caminho_10824-2" data-name="Caminho 10824" d="M730.406,554.511l-.067-.01a8.508,8.508,0,0,0-.572-3.872,1.337,1.337,0,0,0-1.014-.73l.005-.094a1.4,1.4,0,0,1,1.061.764A8.636,8.636,0,0,1,730.406,554.511Z" transform="translate(-720.012 -537.044)" fill="#3f3d56"/>
        <ellipse id="Elipse_1419-2" data-name="Elipse 1419" cx="0.526" cy="0.744" rx="0.526" ry="0.744" transform="translate(11.474 12.092)" fill="#3f3d56"/>
        <path id="Caminho_10826-2" data-name="Caminho 10826" d="M756.545,554.511a8.639,8.639,0,0,1,.587-3.943,1.4,1.4,0,0,1,1.061-.764l.005.094a1.337,1.337,0,0,0-1.015.73,8.506,8.506,0,0,0-.572,3.872Z" transform="translate(-746.203 -537.044)" fill="#3f3d56"/>
        <ellipse id="Elipse_1421-2" data-name="Elipse 1421" cx="0.526" cy="0.744" rx="0.526" ry="0.744" transform="translate(11.507 5.146)" fill="#3f3d56"/>
        <path id="Caminho_10828-2" data-name="Caminho 10828" d="M757.114,466.651a7.95,7.95,0,0,1,.557-3.69,1.428,1.428,0,0,1,1.091-.78l.005.094a1.366,1.366,0,0,0-1.044.746,7.818,7.818,0,0,0-.542,3.619Z" transform="translate(-746.739 -456.346)" fill="#3f3d56"/>
        <rect id="Retângulo_6377-2" data-name="Retângulo 6377" width="0.067" height="10.709" transform="translate(6.81 6.933)" fill="#3f3d56"/>
        <ellipse id="Elipse_1423-2" data-name="Elipse 1423" cx="0.526" cy="0.744" rx="0.526" ry="0.744" transform="translate(6.321 6.244)" fill="#3f3d56"/>
        <path id="Caminho_10830-2" data-name="Caminho 10830" d="M668.531,491.069s-.075-2.285-1.617-2.02" transform="translate(-661.689 -481.061)" fill="#3f3d56"/>
        <path id="Caminho_10832-2" data-name="Caminho 10832" d="M668.521,554.747l-.067-.01a8.373,8.373,0,0,0-.566-3.822,1.343,1.343,0,0,0-1.02-.733l.005-.094a1.4,1.4,0,0,1,1.067.767A8.5,8.5,0,0,1,668.521,554.747Z" transform="translate(-661.645 -537.305)" fill="#3f3d56"/>
        <ellipse id="Elipse_1425-2" data-name="Elipse 1425" cx="0.526" cy="0.744" rx="0.526" ry="0.744" transform="translate(4.688 12.114)" fill="#3f3d56"/>
        <ellipse id="Elipse_1427-2" data-name="Elipse 1427" cx="0.17" cy="0.17" rx="0.17" ry="0.17" transform="translate(6.932 18.874)" fill="#f2f2f2"/>
        <ellipse id="Elipse_1428-2" data-name="Elipse 1428" cx="0.17" cy="0.17" rx="0.17" ry="0.17" transform="translate(7.412 18.874)" fill="#f2f2f2"/>
        <ellipse id="Elipse_1429-2" data-name="Elipse 1429" cx="0.17" cy="0.17" rx="0.17" ry="0.17" transform="translate(7.892 18.874)" fill="#f2f2f2"/>
      </g>
      <rect id="Retângulo_6389" data-name="Retângulo 6389" width="59.874" height="0.837" transform="translate(44.681 58.74)" fill="#ccc"/>
      <rect id="Retângulo_6390" data-name="Retângulo 6390" width="59.874" height="0.837" transform="translate(44.681 61.182)" fill="#ccc"/>
    </g>
  </g>
</svg>
