<svg xmlns="http://www.w3.org/2000/svg" width="212" height="122" viewBox="0 0 212 122">
  <g id="Grupo_16070" data-name="Grupo 16070" transform="translate(-7218 1662)">
    <g id="Grupo_16067" data-name="Grupo 16067" transform="translate(0 5)">
      <g id="Grupo_16061" data-name="Grupo 16061" transform="translate(-109 -885)">
        <g id="Grupo_16051" data-name="Grupo 16051" transform="translate(1603 -868)">
          <rect id="Retângulo_6238" data-name="Retângulo 6238" width="132.471" height="75.869" transform="translate(5744.878 92.733)" fill="#3f3d56"/>
          <path id="Caminho_10580" data-name="Caminho 10580" d="M469.434,302.495h-30.67a.347.347,0,0,1-.347-.347V289.879a.347.347,0,0,1,.347-.347h30.67a.347.347,0,0,1,.347.347v12.268a.347.347,0,0,1-.347.347Zm-30.323-.695h29.976V290.227H439.111Z" transform="translate(5320.807 -167.349)" fill="#fff"/>
          <path id="Caminho_10581" data-name="Caminho 10581" d="M451.8,358.953H438.763a.347.347,0,0,1-.347-.347v-5.214a.347.347,0,0,1,.347-.347H451.8a.347.347,0,0,1,.347.347v5.214a.347.347,0,0,1-.347.347Zm-12.688-.695h12.34v-4.519h-12.34Z" transform="translate(5320.612 -215.52)" fill="#fff"/>
          <path id="Caminho_10582" data-name="Caminho 10582" d="M525.95,358.953H512.915a.347.347,0,0,1-.347-.347v-5.214a.347.347,0,0,1,.347-.347H525.95a.347.347,0,0,1,.347.347v5.214a.347.347,0,0,1-.347.347Zm-12.688-.695H525.6v-4.519h-12.34Z" transform="translate(5264.579 -215.52)" fill="#fff"/>
          <path id="Caminho_10583" data-name="Caminho 10583" d="M469.05,302.111a.348.348,0,0,1-.127-.024L438.636,290.2a.347.347,0,1,1,.254-.647l30.287,11.885a.347.347,0,0,1-.127.671Z" transform="translate(5320.802 -167.352)" fill="#fff"/>
          <path id="Caminho_10584" data-name="Caminho 10584" d="M438.763,302.494a.347.347,0,0,1-.129-.67L469.3,289.556a.347.347,0,0,1,.258.645l-30.67,12.268A.346.346,0,0,1,438.763,302.494Z" transform="translate(5320.808 -167.349)" fill="#fff"/>
          <path id="Caminho_10585" data-name="Caminho 10585" d="M452.22,358.884a.349.349,0,0,1-.127-.024l-12.652-4.984a.347.347,0,0,1,.255-.647l12.651,4.984a.347.347,0,0,1-.127.671Z" transform="translate(5320 -215.643)" fill="#fff"/>
          <path id="Caminho_10586" data-name="Caminho 10586" d="M439.569,360.114a.347.347,0,0,1-.119-.674l12.652-4.6a.347.347,0,0,1,.237.653l-12.652,4.6a.348.348,0,0,1-.119.021Z" transform="translate(5320 -216.869)" fill="#fff"/>
          <path id="Caminho_10587" data-name="Caminho 10587" d="M527.6,360.113a.35.35,0,0,1-.122-.022l-12.268-4.6a.347.347,0,0,1,.244-.651l12.268,4.6a.347.347,0,0,1-.122.673Z" transform="translate(5262.742 -216.869)" fill="#fff"/>
          <path id="Caminho_10588" data-name="Caminho 10588" d="M515.334,359.731a.347.347,0,0,1-.113-.676l12.268-4.217a.347.347,0,1,1,.226.657l-12.268,4.217A.347.347,0,0,1,515.334,359.731Z" transform="translate(5262.741 -216.872)" fill="#fff"/>
          <path id="Caminho_10590" data-name="Caminho 10590" d="M488.17,228.359a5.21,5.21,0,1,1,5.21-5.21A5.21,5.21,0,0,1,488.17,228.359Zm0-9.725a4.515,4.515,0,1,0,4.515,4.515,4.515,4.515,0,0,0-4.515-4.515Z" transform="translate(5286.915 -113.401)" fill="#fff"/>
          <path id="Caminho_10591" data-name="Caminho 10591" d="M667.8,228.359a5.21,5.21,0,1,1,5.21-5.21A5.21,5.21,0,0,1,667.8,228.359Zm0-9.725a4.515,4.515,0,1,0,4.515,4.515,4.515,4.515,0,0,0-4.515-4.515Z" transform="translate(5151.149 -113.401)" fill="#fff"/>
          <path id="Caminho_10592" data-name="Caminho 10592" d="M856.007,228.359a5.21,5.21,0,1,1,5.21-5.21A5.21,5.21,0,0,1,856.007,228.359Zm0-9.725a4.515,4.515,0,1,0,4.515,4.515,4.515,4.515,0,0,0-4.515-4.515Z" transform="translate(5009.097 -113.401)" fill="#fff"/>
          <path id="Caminho_10593" data-name="Caminho 10593" d="M500.991,236.289v-.263l.335-.326c.808-.769,1.173-1.178,1.178-1.654a.564.564,0,0,0-.628-.618,1.077,1.077,0,0,0-.672.267l-.136-.3a1.389,1.389,0,0,1,.9-.321.89.89,0,0,1,.968.92c0,.584-.423,1.056-1.09,1.7l-.253.234v.009h1.421v.355Z" transform="translate(5317.192 -124.932)" fill="#fff"/>
          <path id="Caminho_10596" data-name="Caminho 10596" d="M681.878,235.7a1.434,1.434,0,0,0,.7.2c.55,0,.72-.35.715-.613,0-.443-.4-.633-.817-.633h-.239v-.321h.239c.311,0,.706-.16.706-.535,0-.253-.161-.477-.555-.477a1.157,1.157,0,0,0-.632.21l-.112-.311a1.5,1.5,0,0,1,.827-.244c.623,0,.905.37.905.754a.786.786,0,0,1-.584.744v.01a.823.823,0,0,1,.706.812c0,.506-.394.949-1.153.949a1.6,1.6,0,0,1-.822-.214Z" transform="translate(5182.51 -124.858)" fill="#fff"/>
          <path id="Caminho_10597" data-name="Caminho 10597" d="M653.45,311.312h-30.67a.347.347,0,0,1-.347-.347V291.34a.347.347,0,0,1,.347-.347h30.67a.347.347,0,0,1,.347.347v19.625a.347.347,0,0,1-.347.347Zm-30.323-.695H653.1v-18.93H623.127Z" transform="translate(5181.904 -168.407)" fill="#fff"/>
          <path id="Caminho_10598" data-name="Caminho 10598" d="M668.554,307.022H649.8a.347.347,0,1,1,0-.695h18.756a.347.347,0,0,1,0,.695Z" transform="translate(5161.253 -180.146)" fill="#fff"/>
          <path id="Caminho_10599" data-name="Caminho 10599" d="M668.554,320.166H649.8a.347.347,0,1,1,0-.695h18.756a.347.347,0,0,1,0,.695Z" transform="translate(5161.253 -190.11)" fill="#fff"/>
          <path id="Caminho_10600" data-name="Caminho 10600" d="M668.554,333.31H649.8a.347.347,0,1,1,0-.695h18.756a.347.347,0,0,1,0,.695Z" transform="translate(5161.253 -200.073)" fill="#fff"/>
          <path id="Caminho_10601" data-name="Caminho 10601" d="M668.554,346.454H649.8a.347.347,0,1,1,0-.695h18.756a.347.347,0,0,1,0,.695Z" transform="translate(5161.253 -210.037)" fill="#fff"/>
          <path id="Caminho_10602" data-name="Caminho 10602" d="M668.554,359.6H649.8a.347.347,0,1,1,0-.695h18.756a.347.347,0,0,1,0,.695Z" transform="translate(5161.253 -220)" fill="#fff"/>
          <path id="Caminho_10615" data-name="Caminho 10615" d="M858.483,308.389h-7.477a1.867,1.867,0,0,1-1.866-1.865v-19.24a1.867,1.867,0,0,1,1.866-1.865h.907a.347.347,0,0,1,.322.477.375.375,0,0,0,.346.516h4.263a.374.374,0,0,0,.346-.515.347.347,0,0,1,.322-.478h.971a1.867,1.867,0,0,1,1.865,1.865v19.24A1.867,1.867,0,0,1,858.483,308.389Zm-7.477-22.276a1.172,1.172,0,0,0-1.171,1.17v19.24a1.172,1.172,0,0,0,1.171,1.171h7.477a1.172,1.172,0,0,0,1.171-1.171v-19.24a1.172,1.172,0,0,0-1.171-1.17h-.573a1.07,1.07,0,0,1-1.066.994h-4.263a1.07,1.07,0,0,1-1.065-.993Z" transform="translate(5010.359 -164.168)" fill="#fff"/>
          <path id="Caminho_10616" data-name="Caminho 10616" d="M793.884,324.962h-9.725a.347.347,0,0,1,0-.695h8.887l-2.012-2.012a.347.347,0,0,1,.491-.491l2.605,2.605a.347.347,0,0,1-.246.593Z" transform="translate(5060.151 -191.755)" fill="#fff"/>
          <path id="Caminho_10617" data-name="Caminho 10617" d="M814.829,335.741a.347.347,0,0,1-.245-.593l2.431-2.431a.347.347,0,0,1,.491.491l-2.431,2.431A.346.346,0,0,1,814.829,335.741Z" transform="translate(5036.775 -200.057)" fill="#fff"/>
          <path id="Caminho_10618" data-name="Caminho 10618" d="M859.9,415.065H848.547a39.718,39.718,0,0,1,0-13.54H859.9A24.361,24.361,0,0,0,859.9,415.065Z" transform="translate(5011.254 -252.179)" fill="#f9d74d"/>
          <path id="Caminho_10619" data-name="Caminho 10619" d="M633.036,405.276h11.357a39.722,39.722,0,0,0,0-13.54H633.036A24.365,24.365,0,0,1,633.036,405.276Z" transform="translate(5173.515 -244.764)" fill="#6c63ff"/>
          <path id="Caminho_10620" data-name="Caminho 10620" d="M705.705,421.288h11.356a39.718,39.718,0,0,0,0-13.54H705.705A24.364,24.364,0,0,1,705.705,421.288Z" transform="translate(5118.597 -256.893)" fill="#6c63ff"/>
          <path id="Caminho_10621" data-name="Caminho 10621" d="M650.414,406.1H643.5c-.119,0-.216-.155-.216-.347s.1-.347.216-.347h6.911c.119,0,.216.155.216.347S650.533,406.1,650.414,406.1Z" transform="translate(5165.688 -255.247)" fill="#fff"/>
          <path id="Caminho_10622" data-name="Caminho 10622" d="M650.414,419.646H643.5c-.119,0-.216-.155-.216-.347s.1-.347.216-.347h6.911c.119,0,.216.155.216.347S650.533,419.646,650.414,419.646Z" transform="translate(5165.688 -265.517)" fill="#fff"/>
          <path id="Caminho_10623" data-name="Caminho 10623" d="M723.083,428.268h-6.911c-.119,0-.216-.155-.216-.347s.1-.347.216-.347h6.911c.119,0,.216.155.216.347S723.2,428.268,723.083,428.268Z" transform="translate(5110.757 -272.053)" fill="#fff"/>
          <path id="Caminho_10624" data-name="Caminho 10624" d="M723.083,441.816h-6.911c-.119,0-.216-.155-.216-.347s.1-.347.216-.347h6.911c.119,0,.216.155.216.347S723.2,441.816,723.083,441.816Z" transform="translate(5110.757 -282.323)" fill="#fff"/>
          <path id="Caminho_10625" data-name="Caminho 10625" d="M864.727,414.719h-6.911c-.119,0-.216-.155-.216-.347s.1-.347.216-.347h6.911c.119,0,.216.155.216.347S864.846,414.719,864.727,414.719Z" transform="translate(5003.912 -261.783)" fill="#fff"/>
          <path id="Caminho_10626" data-name="Caminho 10626" d="M864.727,428.268h-6.911c-.119,0-.216-.155-.216-.347s.1-.347.216-.347h6.911c.119,0,.216.155.216.347S864.846,428.268,864.727,428.268Z" transform="translate(5003.912 -272.053)" fill="#fff"/>
          <path id="Caminho_10627" data-name="Caminho 10627" d="M650.414,433.194H643.5c-.119,0-.216-.155-.216-.347s.1-.347.216-.347h6.911c.119,0,.216.155.216.347S650.533,433.194,650.414,433.194Z" transform="translate(5165.688 -275.787)" fill="#fff"/>
          <path id="Caminho_10628" data-name="Caminho 10628" d="M392.858,406.508h11.357a39.72,39.72,0,0,0,0-13.54H392.858a24.364,24.364,0,0,1,0,13.54Z" transform="translate(5355.024 -245.697)" fill="#6c63ff"/>
          <path id="Caminho_10629" data-name="Caminho 10629" d="M410.236,407.329h-6.911c-.119,0-.216-.155-.216-.347s.1-.347.216-.347h6.911c.119,0,.216.155.216.347S410.355,407.329,410.236,407.329Z" transform="translate(5347.241 -256.181)" fill="#fff"/>
          <path id="Caminho_10630" data-name="Caminho 10630" d="M410.236,420.878h-6.911c-.119,0-.216-.155-.216-.347s.1-.347.216-.347h6.911c.119,0,.216.155.216.347S410.355,420.878,410.236,420.878Z" transform="translate(5347.241 -266.451)" fill="#fff"/>
          <path id="Caminho_10631" data-name="Caminho 10631" d="M410.236,434.426h-6.911c-.119,0-.216-.155-.216-.347s.1-.347.216-.347h6.911c.119,0,.216.155.216.347S410.355,434.426,410.236,434.426Z" transform="translate(5347.241 -276.721)" fill="#fff"/>
          <g id="Grupo_16060" data-name="Grupo 16060" transform="translate(0 -1.693)">
            <path id="Caminho_10851" data-name="Caminho 10851" d="M149.983,246.946a8.9,8.9,0,0,1,6.137-5.519s4.243-1.287,7.786,4.841c3.3,5.711,7.561,11.062,2.16,13.341L164.64,256.2l-.171,3.919a19.534,19.534,0,0,1-2.378.41c-5.991.692-11.638,1.842-11.742-.619C150.21,256.642,148.318,251.413,149.983,246.946Z" transform="translate(5746.855 -147.621)" fill="#2f2e41"/>
            <path id="Caminho_10844" data-name="Caminho 10844" d="M142.377,421.316l.385,11.173s4.048,8.983.771,8.763-2.891-8.763-2.891-8.763l-1.156-10.516Z" transform="translate(5772.738 -283.879)" fill="#ffb8b8"/>
            <path id="Caminho_10846" data-name="Caminho 10846" d="M242.521,413.026,241.365,424.2s-3.469,5.915-.771,7.887,2.7-7.011,2.7-7.011l2.891-11.392Z" transform="translate(5650.429 -277.607)" fill="#ffb8b8"/>
            <path id="Caminho_10840" data-name="Caminho 10840" d="M185.216,493.518l3.469,15.336s1.542,6.134,3.662,9.2l.771,1.753,3.084-.438-2.12-9.859-1.349-18.184Z" transform="translate(5711.782 -336.763)" fill="#ffb8b8"/>
            <path id="Caminho_10841" data-name="Caminho 10841" d="M185.216,493.518l3.469,15.336s1.542,6.134,3.662,9.2l.771,1.753,3.084-.438-2.12-9.859-1.349-18.184Z" transform="translate(5711.782 -336.763)" opacity="0.1"/>
            <path id="Caminho_10838" data-name="Caminho 10838" d="M157.32,598.956l-5.271,1.387,2.172,5.821s-.883,3.485-.042,5.33a14.713,14.713,0,0,1,.72,5.194l1.142-.2s2.774,5.935,6.051,4.24-.208-5.729-.208-5.729-2.834-6.368-3.193-8.965S157.32,598.956,157.32,598.956Z" transform="translate(5751.427 -418.206)" fill="#2f2e41"/>
            <path id="Caminho_10839" data-name="Caminho 10839" d="M157.32,598.956l-5.271,1.387,2.172,5.821s-.883,3.485-.042,5.33a14.713,14.713,0,0,1,.72,5.194l1.142-.2s2.774,5.935,6.051,4.24-.208-5.729-.208-5.729-2.834-6.368-3.193-8.965S157.32,598.956,157.32,598.956Z" transform="translate(5751.427 -418.206)" opacity="0.1"/>
            <path id="Caminho_10842" data-name="Caminho 10842" d="M168.47,486.721l-2.891,16.432s.964,8.106-.193,13.145l-1.156,4.82h-3.855V503.372s-.193-14.46.385-15.555S168.47,486.721,168.47,486.721Z" transform="translate(5744.718 -333.177)" fill="#ffb8b8"/>
            <path id="Caminho_10843" data-name="Caminho 10843" d="M180.367,623.98l5.4.438-1.349,6.134s1.349,3.286.771,5.258a14.8,14.8,0,0,0,0,5.258h-1.156s-1.927,6.353-5.4,5.258-.578-5.7-.578-5.7,1.927-6.792,1.927-9.421S180.367,623.98,180.367,623.98Z" transform="translate(5723.955 -437.278)" fill="#2f2e41"/>
            <ellipse id="Elipse_1431" data-name="Elipse 1431" cx="5.204" cy="5.915" rx="5.204" ry="5.915" transform="translate(5897.769 97.067)" fill="#ffb8b8"/>
            <path id="Caminho_10852" data-name="Caminho 10852" d="M193.14,290.046s-.385,7.449.771,7.887-5.975,0-5.975,0,.964-4.6,0-5.915S193.14,290.046,193.14,290.046Z" transform="translate(5713.398 -184.763)" fill="#ffb8b8"/>
            <path id="Caminho_10847" data-name="Caminho 10847" d="M177.566,317.518s5.011-.438,5.975,0a31.933,31.933,0,0,1,3.662,2.629l-1.349,13.8-10.986,2.629-1.735-2.848-1.735-4.163.771-5.258.193-3.067Z" transform="translate(5723.672 -205.141)" fill="#6c63ff"/>
            <path id="Caminho_10848" data-name="Caminho 10848" d="M152.18,332.882s2.506.657,2.7,2.848a62.366,62.366,0,0,1,0,8.544,1.67,1.67,0,0,0,.193,1.534c.193.219.578-.219.193.438s-.385.657-.193,1.315.771-.219.385.876-.578,1.315-.385,1.534.771,5.258.771,5.258l-3.277.657-3.277-12.926Z" transform="translate(5759.659 -216.902)" fill="#6c63ff"/>
            <path id="Caminho_10849" data-name="Caminho 10849" d="M236.823,332.882a2.067,2.067,0,0,0-1.735,1.315c-.578,1.314-2.12,9.859-1.927,10.516s.578-.219.193,1.1,0,1.1-.193,1.972.771,0,0,.876-1.156,1.1-.771,1.534.964-.438.385.438a4.626,4.626,0,0,0-.578,2.191l4.626,1.1,1.349-12.269Z" transform="translate(5659.982 -216.913)" fill="#6c63ff"/>
            <path id="Caminho_10845" data-name="Caminho 10845" d="M162.633,329.38l-.947-.538a.722.722,0,0,0-.622-.049.853.853,0,0,0-.468.468l-4.348,10.107-4.818,3.505-3.469-1.753s-2.506-4.382-1.735-6.573c.523-1.485,1.135-3.771,1.475-5.089a.424.424,0,0,0-.128-.428.313.313,0,0,0-.4-.01l-.657.5a1.108,1.108,0,0,0-.408.688l-1.427,7.846,1.927,4.6v4.382L145.262,370.7s5.011-.876,10.022-1.972,11.372-1.972,11.372-1.972-3.277-19.28-5.975-22.566c0,0,0-2.41-.385-2.629s-.771-1.753-.771-1.753l3.491-9.239A.98.98,0,0,0,162.633,329.38Z" transform="translate(5749.809 -213.644)" fill="#2f2e41"/>
            <path id="Caminho_10856" data-name="Caminho 10856" d="M63.929,81.176l4.416-2.629,6.1,1.076L75.7,85.957l-3.141-.137-.877-2.327v2.289l-1.449-.063-.841-3.7-.526,3.944-5.152-.12Z" transform="translate(5833.888 16.462)" fill="#2f2e41"/>
            <ellipse id="Elipse_1432" data-name="Elipse 1432" cx="0.578" cy="1.15" rx="0.578" ry="1.15" transform="translate(5907.695 101.832)" fill="#ffb8b8"/>
            <path id="Caminho_10850" data-name="Caminho 10850" d="M266.36,496.508h-9.991a45.078,45.078,0,0,1,0-13.54h9.991A27.572,27.572,0,0,0,266.36,496.508Z" transform="translate(5626.185 -330.638)" fill="#6c63ff"/>
            <path id="Caminho_10853" data-name="Caminho 10853" d="M266.3,497.329h6.08c.1,0,.19-.155.19-.347s-.085-.347-.19-.347H266.3c-.1,0-.19.155-.19.347S266.194,497.329,266.3,497.329Z" transform="translate(5617.792 -341.129)" fill="#fff"/>
            <path id="Caminho_10854" data-name="Caminho 10854" d="M266.3,510.878h6.08c.1,0,.19-.155.19-.347s-.085-.347-.19-.347H266.3c-.1,0-.19.155-.19.347S266.194,510.878,266.3,510.878Z" transform="translate(5617.792 -351.399)" fill="#fff"/>
            <path id="Caminho_10855" data-name="Caminho 10855" d="M266.3,524.426h6.08c.1,0,.19-.155.19-.347s-.085-.347-.19-.347H266.3c-.1,0-.19.155-.19.347S266.194,524.426,266.3,524.426Z" transform="translate(5617.792 -361.669)" fill="#fff"/>
          </g>
          <path id="Caminho_10837" data-name="Caminho 10837" d="M357.739,233.6h-.01l-.55.3-.083-.326.691-.37h.365v3.163h-.414Z" transform="translate(5417.358 -125.196)" fill="#fff"/>
        </g>
      </g>
    </g>
    <rect id="Retângulo_6414" data-name="Retângulo 6414" width="178.036" height="0.485" transform="translate(7238.529 -1540.604)" fill="#2f2e41"/>
    <g id="Retângulo_6415" data-name="Retângulo 6415" transform="translate(7218 -1662)" fill="#fff" stroke="#707070" stroke-width="1" opacity="0">
      <rect width="212" height="122" stroke="none"/>
      <rect x="0.5" y="0.5" width="211" height="121" fill="none"/>
    </g>
  </g>
</svg>
