<svg xmlns="http://www.w3.org/2000/svg" width="2435" height="656" viewBox="0 0 2435 656">
  <g id="Grupo_4627" data-name="Grupo 4627" transform="translate(-12416 3176)">
    <g id="Retângulo_3500" data-name="Retângulo 3500" transform="translate(12416 -3176)" fill="#fff" stroke="#707070" stroke-width="1" opacity="0.049">
      <rect width="2435" height="656" stroke="none"/>
      <rect x="0.5" y="0.5" width="2434" height="655" fill="none"/>
    </g>
    <line id="Linha_819" data-name="Linha 819" x1="385" transform="translate(12842.5 -3090.5)" fill="none" stroke="#4573cb" stroke-width="2"/>
    <line id="Linha_823" data-name="Linha 823" x1="293" transform="translate(12549.5 -2910.5)" fill="none" stroke="#707070" stroke-width="1"/>
    <line id="Linha_821" data-name="Linha 821" x1="214" y2="41" transform="translate(12843.5 -2951.5)" fill="none" stroke="#7cb7e2" stroke-width="2"/>
    <line id="Linha_820" data-name="Linha 820" x1="173" transform="translate(13054.5 -2944.5)" fill="none" stroke="#7cb7e2" stroke-width="2"/>
    <line id="Linha_822" data-name="Linha 822" x1="211" y1="39" transform="translate(12843.5 -2910.5)" fill="none" stroke="#7cb7e2" stroke-width="2"/>
    <line id="Linha_816" data-name="Linha 816" x1="1594" y1="12" transform="translate(12548.5 -2648.974)" fill="none" stroke="#4574b4" stroke-width="2"/>
    <line id="Linha_814" data-name="Linha 814" x1="1015" y1="8" transform="translate(13720.5 -2747.791)" fill="none" stroke="#4574b4" stroke-width="2"/>
    <line id="Linha_817" data-name="Linha 817" x1="1" y1="126" transform="translate(14141.5 -2762.974)" fill="none" stroke="#4574b4" stroke-width="2"/>
    <line id="Linha_818" data-name="Linha 818" y1="107.526" transform="translate(13720.5 -2747.5)" fill="none" stroke="#4574b4" stroke-width="2"/>
    <line id="Linha_815" data-name="Linha 815" x1="1462" y1="3" transform="translate(13247.5 -3090.5)" fill="none" stroke="#4573cb" stroke-width="2"/>
    <line id="Linha_824" data-name="Linha 824" x1="309" y2="122.526" transform="translate(12527.5 -2779.5)" fill="none" stroke="#4574b4" stroke-width="2"/>
    <line id="Linha_825" data-name="Linha 825" y1="156" x2="176" transform="translate(12660.5 -3086.5)" fill="none" stroke="#707070" stroke-width="1"/>
    <line id="Linha_826" data-name="Linha 826" x1="202" y1="132" transform="translate(12634.5 -2916.5)" fill="none" stroke="#100f0f" stroke-width="1"/>
    <ellipse id="Elipse_1315" data-name="Elipse 1315" cx="18.5" cy="17.5" rx="18.5" ry="17.5" transform="translate(12825 -3108)" fill="#4573cb"/>
    <ellipse id="Elipse_1316" data-name="Elipse 1316" cx="18.5" cy="17.5" rx="18.5" ry="17.5" transform="translate(12825 -2928)" fill="#7cb7e2"/>
    <ellipse id="Elipse_1317" data-name="Elipse 1317" cx="18.5" cy="17.5" rx="18.5" ry="17.5" transform="translate(12824 -2802)" fill="#4574b4"/>
    <text id="Botão_Planos" data-name="Botão Planos" transform="translate(12772 -3124)" fill="#2781c4" font-size="23" font-family="HelveticaNeue-Medium, Helvetica Neue" font-weight="500"><tspan x="0" y="0">Botão Planos</tspan></text>
    <text id="Lista_de_POS" data-name="Lista de POS" transform="translate(12771 -2948)" fill="#2781c4" font-size="23" font-family="HelveticaNeue-Medium, Helvetica Neue" font-weight="500"><tspan x="0" y="0">Lista de POS</tspan></text>
    <text id="Credenciar" transform="translate(12784 -2822)" fill="#2781c4" font-size="23" font-family="HelveticaNeue-Medium, Helvetica Neue" font-weight="500"><tspan x="0" y="0">Credenciar</tspan></text>
    <rect id="Retângulo_3498" data-name="Retângulo 3498" width="167" height="86" transform="translate(12493 -2965)" fill="#cecece"/>
    <text id="Login_Id_seller" data-name="Login
Id seller" transform="translate(12573 -2927)" font-size="16" font-family="HelveticaNeue, Helvetica Neue"><tspan x="-19.856" y="0">Login</tspan><tspan x="-29.032" y="18">Id Seller</tspan></text>
    <rect id="Retângulo_3492" data-name="Retângulo 3492" width="113" height="55" transform="translate(12998 -3118)" fill="#cecece"/>
    <rect id="Retângulo_3493" data-name="Retângulo 3493" width="113" height="55" transform="translate(12998 -2972)" fill="#cecece"/>
    <rect id="Retângulo_3489" data-name="Retângulo 3489" width="113" height="55" transform="translate(13175 -2972)" fill="#cecece"/>
    <rect id="Retângulo_3490" data-name="Retângulo 3490" width="113" height="55" transform="translate(13171 -3118)" fill="#cecece"/>
    <rect id="Retângulo_3494" data-name="Retângulo 3494" width="113" height="55" transform="translate(12998 -2899)" fill="#cecece"/>
    <text id="Fees_Plans" data-name="Fees
Plans" transform="translate(13054 -3095)" font-size="16" font-family="HelveticaNeue, Helvetica Neue"><tspan x="-17.184" y="0">Fees</tspan><tspan x="-19.704" y="18">Plans</tspan></text>
    <text id="Avaliable_POS" data-name="Avaliable
POS" transform="translate(13054 -2949)" font-size="16" font-family="HelveticaNeue, Helvetica Neue"><tspan x="-32" y="0">Avaliable</tspan><tspan x="-13.776" y="18">Pos</tspan></text>
    <text id="Assing_User" data-name="Assing 
User" transform="translate(13231 -2949)" font-size="16" font-family="HelveticaNeue, Helvetica Neue"><tspan x="-26.224" y="0">Assing </tspan><tspan x="-16.736" y="18">User</tspan></text>
    <text id="ADD_TO_THIS_PLAN" data-name="ADD TO 
THIS PLAN" transform="translate(13227 -3095)" font-size="16" font-family="HelveticaNeue, Helvetica Neue"><tspan x="-27.416" y="0">Add To </tspan><tspan x="-32.744" y="18">This Plan</tspan></text>
    <text id="Order_new_Pos" data-name="Order new
Pos" transform="translate(13054 -2876)" font-size="16" font-family="HelveticaNeue, Helvetica Neue"><tspan x="-38.664" y="0">Order New</tspan><tspan x="-13.776" y="18">Pos</tspan></text>
    <rect id="Retângulo_3499" data-name="Retângulo 3499" width="113" height="55" transform="translate(12493 -2674)" fill="#cecece"/>
    <rect id="Retângulo_3487" data-name="Retângulo 3487" width="113" height="55" transform="translate(13312 -3115)" fill="#cecece"/>
    <rect id="Retângulo_3497" data-name="Retângulo 3497" width="113" height="55" transform="translate(12660 -2674)" fill="#cecece"/>
    <rect id="Retângulo_3485" data-name="Retângulo 3485" width="113" height="55" transform="translate(13479 -3115)" fill="#cecece"/>
    <rect id="Retângulo_3496" data-name="Retângulo 3496" width="113" height="55" transform="translate(12820 -2674)" fill="#cecece"/>
    <rect id="Retângulo_3482" data-name="Retângulo 3482" width="113" height="55" transform="translate(13639 -3115)" fill="#cecece"/>
    <rect id="Retângulo_3495" data-name="Retângulo 3495" width="147" height="55" transform="translate(12964 -2677)" fill="#cecece"/>
    <rect id="Retângulo_3491" data-name="Retângulo 3491" width="119" height="55" transform="translate(13129 -2677)" fill="#cecece"/>
    <rect id="Retângulo_3488" data-name="Retângulo 3488" width="119" height="55" transform="translate(13267 -2677)" fill="#cecece"/>
    <rect id="Retângulo_3486" data-name="Retângulo 3486" width="119" height="55" transform="translate(13402 -2677)" fill="#cecece"/>
    <rect id="Retângulo_3484" data-name="Retângulo 3484" width="119" height="55" transform="translate(13537 -2677)" fill="#cecece"/>
    <rect id="Retângulo_3483" data-name="Retângulo 3483" width="86" height="55" transform="translate(13681 -2674)" fill="#f5f5f5"/>
    <rect id="Retângulo_3481" data-name="Retângulo 3481" width="113" height="55" transform="translate(13797 -3118)" fill="#cecece"/>
    <rect id="Retângulo_3473" data-name="Retângulo 3473" width="113" height="55" transform="translate(14210 -2778)" fill="#cecece"/>
    <rect id="Retângulo_3478" data-name="Retângulo 3478" width="113" height="55" transform="translate(13953 -3118)" fill="#cecece"/>
    <rect id="Retângulo_3471" data-name="Retângulo 3471" width="113" height="55" transform="translate(14370 -2778)" fill="#cecece"/>
    <rect id="Retângulo_3474" data-name="Retângulo 3474" width="113" height="55" transform="translate(14113 -3118)" fill="#cecece"/>
    <rect id="Retângulo_3472" data-name="Retângulo 3472" width="113" height="55" transform="translate(14286 -3118)" fill="#cecece"/>
    <rect id="Retângulo_3470" data-name="Retângulo 3470" width="113" height="83" transform="translate(14449 -3129)" fill="#cecece"/>
    <rect id="Retângulo_3469" data-name="Retângulo 3469" width="113" height="55" transform="translate(14609 -3115)" fill="#cecece"/>
    <text id="CPF" transform="translate(12531 -2640)" fill="#282828" font-size="16" font-family="HelveticaNeue, Helvetica Neue"><tspan x="0" y="0">Cpf</tspan></text>
    <text id="Full_Name" data-name="Full
Name" transform="translate(12722 -2651)" fill="#282828" font-size="16" font-family="HelveticaNeue, Helvetica Neue"><tspan x="-12.592" y="0">Full</tspan><tspan x="-21.192" y="18">Name</tspan></text>
    <text id="FULL_NAME-2" data-name="FULL NAME" transform="translate(13536 -3084)" fill="#282828" font-size="16" font-family="HelveticaNeue, Helvetica Neue"><tspan x="-36.008" y="0">Full Name</tspan></text>
    <text id="Fantasy_Name" data-name="Fantasy 
Name" transform="translate(12876 -2651)" fill="#282828" font-size="16" font-family="HelveticaNeue, Helvetica Neue"><tspan x="-30.376" y="0">Fantasy </tspan><tspan x="-21.192" y="18">Name</tspan></text>
    <text id="Fantasy_Name-2" data-name="Fantasy 
Name" transform="translate(13661 -3092)" fill="#282828" font-size="16" font-family="HelveticaNeue, Helvetica Neue"><tspan x="0" y="0">Fantasy </tspan><tspan x="0" y="18">Name</tspan></text>
    <text id="Email_Confirmation_" data-name="Email
Confirmation " transform="translate(13032 -2653)" fill="#282828" font-size="16" font-family="HelveticaNeue, Helvetica Neue"><tspan x="-19.56" y="0">Email</tspan><tspan x="-48.304" y="18">Confirmation </tspan></text>
    <text id="Cellphone" transform="translate(13186 -2646)" fill="#282828" font-size="16" font-family="HelveticaNeue, Helvetica Neue"><tspan x="-36.152" y="0">Cellphone</tspan></text>
    <text id="Adress" transform="translate(13324 -2646)" fill="#282828" font-size="16" font-family="HelveticaNeue, Helvetica Neue"><tspan x="-24.744" y="0">Adress</tspan></text>
    <text id="Photo" transform="translate(13459 -2646)" fill="#282828" font-size="16" font-family="HelveticaNeue, Helvetica Neue"><tspan x="-21.336" y="0">Photo</tspan></text>
    <text id="Document_Photo" data-name="Document
Photo" transform="translate(13594 -2653)" fill="#282828" font-size="16" font-family="HelveticaNeue, Helvetica Neue"><tspan x="-37.056" y="0">Document</tspan><tspan x="-21.336" y="18">Photo</tspan></text>
    <text id="Payment_PJ_ou_PF" data-name="Payment
PJ ou PF" transform="translate(13724 -2652)" fill="#282828" font-size="16" font-family="HelveticaNeue, Helvetica Neue"><tspan x="-31.568" y="0">Payment</tspan><tspan x="-29.488" y="18">Pj Ou Pf</tspan></text>
    <text id="PF" transform="translate(13733 -2703)" fill="#282828" font-size="14" font-family="HelveticaNeue, Helvetica Neue"><tspan x="-8.554" y="0">PF</tspan></text>
    <text id="PJ" transform="translate(13820 -2643)" fill="#282828" font-size="14" font-family="HelveticaNeue, Helvetica Neue"><tspan x="-8.169" y="0">PJ</tspan></text>
    <text id="Email" transform="translate(13832 -3084)" fill="#282828" font-size="16" font-family="HelveticaNeue, Helvetica Neue"><tspan x="0" y="0">Email</tspan></text>
    <text id="MCC" transform="translate(14246 -2744)" fill="#282828" font-size="16" font-family="HelveticaNeue, Helvetica Neue"><tspan x="0" y="0">Mcc</tspan></text>
    <text id="MCC-2" data-name="MCC" transform="translate(13989 -3084)" fill="#282828" font-size="16" font-family="HelveticaNeue, Helvetica Neue"><tspan x="0" y="0">Mcc</tspan></text>
    <text id="Spending" transform="translate(14388 -2744)" fill="#282828" font-size="16" font-family="HelveticaNeue, Helvetica Neue"><tspan x="0" y="0">Spending</tspan></text>
    <text id="Spending-2" data-name="Spending" transform="translate(14131 -3084)" fill="#282828" font-size="16" font-family="HelveticaNeue, Helvetica Neue"><tspan x="0" y="0">Spending</tspan></text>
    <text id="Receive_in_Advance_" data-name="Receive 
in Advance?" transform="translate(14292 -3095)" fill="#282828" font-size="16" font-family="HelveticaNeue, Helvetica Neue"><tspan x="0" y="0">Receive </tspan><tspan x="0" y="18">In Advance?</tspan></text>
    <rect id="Retângulo_2211" data-name="Retângulo 2211" width="150" height="116" transform="translate(14529 -2805)" fill="#cecece"/>
    <g id="Retângulo_2211-2" data-name="Retângulo 2211" transform="translate(14706 -2775)" fill="#f5f5f5" stroke="#707070" stroke-width="1">
      <rect width="113" height="55" stroke="none"/>
      <rect x="0.5" y="0.5" width="112" height="54" fill="none"/>
    </g>
    <text id="_Bank_Agency_Account_Type_of_account" data-name="
Bank 
Agency
Account
Type of account" transform="translate(14543 -2795)" fill="#282828" font-size="18" font-family="HelveticaNeue, Helvetica Neue"><tspan x="0" y="0"></tspan><tspan x="0" y="22">Bank </tspan><tspan x="0" y="44">Agency</tspan><tspan x="0" y="66">Account</tspan><tspan x="0" y="88">Type of account</tspan></text>
    <text id="Analyse" transform="translate(14731 -2741)" fill="#282828" font-size="18" font-family="HelveticaNeue, Helvetica Neue"><tspan x="0" y="0">Analyse</tspan></text>
    <text id="_Rental_lending_Or_buy" data-name="
Rental,
lending
Or buy" transform="translate(14463 -3118)" fill="#282828" font-size="16" font-family="HelveticaNeue, Helvetica Neue"><tspan x="0" y="0"></tspan><tspan x="0" y="18">Rental,</tspan><tspan x="0" y="36">Lending</tspan><tspan x="0" y="54">Or Buy</tspan></text>
    <text id="Fees_amount" data-name="Fees amount" transform="translate(14614 -3082)" fill="#282828" font-size="16" font-family="HelveticaNeue, Helvetica Neue"><tspan x="0" y="0">Fees Amount</tspan></text>
    <text id="CPF-2" data-name="CPF" transform="translate(13348 -3083)" fill="#282828" font-size="16" font-family="HelveticaNeue, Helvetica Neue"><tspan x="0" y="0">Cpf</tspan></text>
    <rect id="Retângulo_3479" data-name="Retângulo 3479" width="94" height="55" transform="translate(13867 -2674)" fill="#cecece"/>
    <rect id="Retângulo_3480" data-name="Retângulo 3480" width="94" height="55" transform="translate(13867 -2780)" fill="#cecece"/>
    <rect id="Retângulo_3477" data-name="Retângulo 3477" width="94" height="55" transform="translate(13988 -2674)" fill="#cecece"/>
    <rect id="Retângulo_3475" data-name="Retângulo 3475" width="94" height="55" transform="translate(14094 -2675)" fill="#cecece"/>
    <rect id="Retângulo_3476" data-name="Retângulo 3476" width="94" height="55" transform="translate(14094 -2778)" fill="#cecece"/>
    <text id="CNPJ" transform="translate(13910 -2640)" fill="#282828" font-size="16" font-family="HelveticaNeue, Helvetica Neue"><tspan x="-16.744" y="0">Cnpj</tspan></text>
    <text id="CPF-3" data-name="CPF" transform="translate(13910 -2746)" fill="#282828" font-size="16" font-family="HelveticaNeue, Helvetica Neue"><tspan x="-12.888" y="0">Cpf</tspan></text>
    <text id="Confirm_CPF" data-name="Confirm
 CPF" transform="translate(14036 -2647)" fill="#282828" font-size="16" font-family="HelveticaNeue, Helvetica Neue"><tspan x="-28.448" y="0">Confirm</tspan><tspan x="-15.112" y="18" xml:space="preserve"> Cpf</tspan></text>
    <text id="COMPANY_NAME" data-name="COMPANY
 NAME" transform="translate(14142 -2648)" fill="#282828" font-size="16" font-family="HelveticaNeue, Helvetica Neue"><tspan x="-34.68" y="0">Company</tspan><tspan x="-23.416" y="18" xml:space="preserve"> Name</tspan></text>
    <text id="TRADING_NAME" data-name="TRADING
 NAME" transform="translate(14142 -2751)" fill="#282828" font-size="16" font-family="HelveticaNeue, Helvetica Neue"><tspan x="-26.376" y="0">Trading</tspan><tspan x="-23.416" y="18" xml:space="preserve"> Name</tspan></text>
    <text id="Legend:_CPF_-_social_security_number._CNPJ_-_National_Registry_of_Legal_Entities" data-name="Legend:       CPF - social security number.             CNPJ - National Registry of Legal Entities" transform="translate(12457 -2558)" fill="#707070" font-size="20" font-family="HelveticaNeue, Helvetica Neue"><tspan x="0" y="19" xml:space="preserve">Legend:       CPF - social security number.             CNPJ - National Registry of Legal Entities</tspan></text>
  </g>
</svg>
