<svg id="Camada_1" data-name="Camada 1" xmlns="http://www.w3.org/2000/svg" viewBox="0 0 189.28 61.95"><defs><style>.cls-1{font-size:25px;font-family:Rubik-Medium, Rubik;font-weight:500;}.cls-2{letter-spacing:-0.01em;}.cls-3{letter-spacing:-0.01em;}</style></defs><text class="cls-1" transform="translate(0 54.9) scale(1.03 1)">Jessica <tspan class="cls-2" x="98.2" y="0">P</tspan><tspan x="114.5" y="0">o</tspan><tspan class="cls-3" x="129.3" y="0">n</tspan><tspan x="144.75" y="0">tes</tspan></text><path d="M89.31-13.38a5.7,5.7,0,0,1-2.54-1.87,5,5,0,0,1-1-3,.54.54,0,0,1,.15-.38.54.54,0,0,1,.39-.17h2.46a.8.8,0,0,1,.77.65,2.69,2.69,0,0,0,1.07,1.93,3.89,3.89,0,0,0,2.29.62,3.09,3.09,0,0,0,2.49-1,4.26,4.26,0,0,0,.87-2.85v-8H87.49a.6.6,0,0,1-.44-.18.54.54,0,0,1-.18-.42V-29.9a.57.57,0,0,1,.18-.44.63.63,0,0,1,.44-.16h11.8a.68.68,0,0,1,.47.17.61.61,0,0,1,.18.45V-19.4a6.9,6.9,0,0,1-.88,3.57,5.64,5.64,0,0,1-2.49,2.29,8.42,8.42,0,0,1-3.76.79A9.43,9.43,0,0,1,89.31-13.38Z" transform="translate(-0.45 30.5)"/><path d="M101.9-13.18a.54.54,0,0,1-.18-.42V-29.88a.64.64,0,0,1,.17-.45.61.61,0,0,1,.45-.17h6.93a7.68,7.68,0,0,1,4.88,1.41,5,5,0,0,1,1.78,4.14,4.89,4.89,0,0,1-1.77,4.11,7.71,7.71,0,0,1-4.89,1.39h-3.85v5.85a.57.57,0,0,1-.17.42.58.58,0,0,1-.45.18h-2.46A.6.6,0,0,1,101.9-13.18Zm7.24-9a3.46,3.46,0,0,0,2.29-.68,2.53,2.53,0,0,0,.81-2,2.67,2.67,0,0,0-.78-2,3.26,3.26,0,0,0-2.32-.74h-3.77v5.5Z" transform="translate(-0.45 30.5)"/></svg>